<svg width="261" height="126" viewBox="0 0 261 126" xmlns="http://www.w3.org/2000/svg">
    <g fill-rule="nonzero" fill="none">
        <path d="m26.446 124-.446-.101c4.974-22.331 17.473-42.61 35.195-57.1 27.238-22.237 63.906-28.727 97.012-17.171 33.107 11.555 57.974 39.525 65.793 73.998l-.446.102c-10.528-46.67-51.042-79.266-98.523-79.266-46.86 0-88.32 33.45-98.585 79.538z" fill="#3F3D56"/>
        <path fill="#F39898" d="m239.143 112.667.857 4.889-6 .444.857-6zM215.76 42s.455 6.4.455 6.636c0 .237-3.19 16.59-3.19 16.59s-4.557 9.006 0 8.77c4.557-.238 3.19-8.533 3.19-8.533L221 51.717 218.95 42h-3.19zM223.857 112.667l-.857 4.889 6 .444-.857-6z"/>
        <path d="m218.392 65.133-1.099 1.586s-.66 6.798 0 9.064 1.979 12.689 1.979 13.369c0 .68.22 1.133 0 1.36-.22.226-.88.226-.44.679.44.453.44 1.813.44 1.813v1.133l2.858 16.767s-1.76 2.04-.44 2.04c1.319 0 6.155 0 5.936-2.266l-.44-.227s-.66-14.955-.44-15.635c.22-.68 0-2.039 0-2.039s-.44-.68 0-.906c.44-.227.44-2.04.44-2.04l1.978-13.822s1.76 9.29 2.858 10.197c1.1.906.88 3.172.88 3.172l.879 19.94s-.88 2.266 0 2.72c.88.452 4.617 2.039 4.837-.227.22-2.266 1.319-21.98 1.319-22.886 0-.906-.22-1.36 0-2.04.22-.68-.22-.68 0-.68s-.44-.679-.44-1.132V73.97s.22-2.266.44-2.72c.22-.452-.22-.905 0-1.585.22-.68-.44-2.946-.44-2.946L229.604 64l-11.212 1.133zM226.622 117.262s1.165-1.262-.466-1.262a7.11 7.11 0 0 0-3.03.757l-1.165 4.542s-4.778 4.163.582 3.659c5.36-.505 4.545-.127 4.545-.127s1.631-.504 1.864-1.009c.233-.505-.466-7.822-.466-7.822s-.699 2.019-1.864 1.262zM236.158 117.262s-1.204-1.262.481-1.262a7.543 7.543 0 0 1 3.13.757l1.205 4.542s4.937 4.163-.602 3.659c-5.539-.505-5.418-.127-5.418-.127s-1.686-.504-1.927-1.009c-.24-.505 1.204-7.822 1.204-7.822s.723 2.019 1.927 1.262z" fill="#303030"/>
        <path fill="#3F3D56" d="M64 41h1v81h-1z"/>
        <path d="M85 51.407C85.132 79.85 64.741 103 64.741 103S44.134 80.035 44 51.593C43.867 23.15 64.258 0 64.258 0S84.866 22.965 85 51.407z" fill="#B2DFD8"/>
        <path fill="#F2F2F2" d="M50 90h158v32H50z"/>
        <path fill="#606060" d="m45 93 17.26-36h137.852L213 93z"/>
        <path fill="#F2F2F2" d="M87 60h65v22H87z"/>
        <path fill="#606060" d="M92 42 82 64h75l-5.91-22z"/>
        <path fill="#CCC" d="M92 94h51v28H92zM56 96h28v26H56z"/>
        <path fill="#606060" d="M152 99h14v25h-14z"/>
        <path fill="#3F3D56" d="M0 124.95h261v1H0zM39 68h1v54h-1z"/>
        <path d="M53 76.939C53.09 95.716 39.165 111 39.165 111S25.092 95.839 25 77.061C24.91 58.284 38.835 43 38.835 43S52.908 58.161 53 76.939z" fill="#80CBC0"/>
        <path fill="#3F3D56" d="M22 68h1v54h-1z"/>
        <path d="M36 76.939C36.09 95.716 22.165 111 22.165 111S8.092 95.839 8 77.061C7.91 58.284 21.835 43 21.835 43S35.908 58.161 36 76.939z" fill="#B2DFD8"/>
        <path fill="#303030" d="M182 100h6v6h-6zM192 100h6v6h-6zM182 109h6v6h-6zM192 109h6v6h-6z"/>
        <path fill="#3F3D56" d="M94 64h6v6h-6z"/>
        <path fill="#303030" d="M101 64h6v6h-6zM94 71h6v6h-6zM101 71h6v6h-6zM133 64h6v6h-6zM140 64h6v6h-6zM133 71h6v6h-6zM140 71h6v6h-6zM113 64h6v6h-6zM120 64h6v6h-6zM113 71h6v6h-6zM120 71h6v6h-6z"/>
        <path fill="#F2F2F2" d="M156 102h3v3h-3zM159 102h3v3h-3zM156 105h3v3h-3zM159 105h3v3h-3z"/>
        <circle fill="#F2F2F2" cx="164.5" cy="112.5" r="1"/>
        <path fill="#F2F2F2" d="M92 98.95h51v1H92zM92 101.95h51v1H92zM92 102.95h51v1H92zM92 105.95h51v1H92z"/>
        <path fill="#F2F2F2" d="M92 105.95h51v1H92zM92 108.95h51v1H92zM92 111.95h51v1H92zM92 114.95h51v1H92zM92 115.95h51v1H92zM92 117.95h51v1H92zM92 118.95h51v1H92zM56 98.95h28v1H56zM56 101.95h28v1H56zM56 102.95h28v1H56zM56 105.95h28v1H56z"/>
        <path fill="#F2F2F2" d="M56 105.95h28v1H56zM56 108.95h28v1H56zM56 111.95h28v1H56zM56 114.95h28v1H56zM56 115.95h28v1H56zM56 117.95h28v1H56zM56 118.95h28v1H56z"/>
        <circle fill="#D8232A" cx="200" cy="57" r="19"/>
        <path d="M194.827 50.962h10.334v.021c-.609.939-.952 1.44-1.031 1.504h-2.76c.379.444.637.985.773 1.622h2.943c.036.008.054.022.054.043-.66.989-.996 1.483-1.01 1.483h-1.912c-.043.508-.287 1.12-.73 1.837-.588.723-1.15 1.192-1.687 1.407-1.003.48-1.962.72-2.88.72v.021c0 .072 2.074 2.532 6.22 7.38h-2.739c-4.039-4.705-6.058-7.068-6.058-7.09v-1.429l.021-.053c.358.05.777.075 1.257.075 2.263 0 3.67-.734 4.222-2.202.086-.215.129-.437.129-.666h-6.145c-.029 0-.043-.015-.043-.043.68-.988 1.028-1.483 1.042-1.483h4.877v-.021c-.28-.566-.82-1.006-1.622-1.321-.573-.187-1.089-.28-1.547-.28h-2.728v-.053c.658-.982.999-1.472 1.02-1.472z" fill="#FFFAFB"/>
        <circle fill="#F39898" cx="221" cy="18" r="6"/>
        <path d="M218 23.222s1 4.445 1 5.111C219 29 223.25 31 223.25 31l4.75-5.333s-3-3.778-3-4.667l-7 2.222z" fill="#F39898"/>
        <path d="M223.414 28.7s-2.104-.52-2.742-1.383c0 0-6.672 6.098-6.672 7.22l5.31 8.756s0 3.143.483 3.367c.483.225 0 0 0 .898s-1.448 6.735-.965 7.633c.482.898.965.225.482 1.572-.482 1.347-1.69 8.53-1.69 8.53s4.346-1.346 10.621.899c6.276 2.245 13.759-.898 13.759-.898s-1.931-4.041-1.448-5.388c.482-1.347-1.207-3.817-1.207-3.817l-1.207-20.654s1.69-9.204.483-9.653l-2.414-.898-7.73-.884s-1.925 4.476-5.063 4.7z" fill="#B2DFD8"/>
        <path d="m214.51 32-2.054 1.522s-1.026 3.26 0 4.782c1.027 1.522 1.438 3.696 1.438 3.696l4.106-.435L214.51 32z" fill="#B2DFD8"/>
        <path d="M233.631 34s-1.333 3.53-1.055 7.022c.051.625.256 1.227.595 1.748l-16.337 7.984s-7.38.787-5.539 4.105c1.842 3.319 8.52-1.659 8.52-1.659s17.5-2.607 18.882-5.215c1.382-2.607 2.303-13.51 2.303-13.51L233.631 34z" fill="#F39898"/>
        <path d="m215.955 12.365-1.009-.38s2.11-2.18 5.045-1.99l-.826-.853s2.018-.759 3.852 1.232c.964 1.046 2.08 2.276 2.775 3.662h1.08l-.45.932L228 15.9l-1.62-.167c.154.805.101 1.632-.153 2.414l.043.737s-1.877-2.728-1.877-3.107v.948s-1.01-.853-1.01-1.422l-.55.664-.275-1.043-3.393 1.043.55-.853-2.109.284.825-1.043s-2.384 1.233-2.476 2.275c-.091 1.043-1.284 2.37-1.284 2.37l-.55-.948s-.825-4.265 1.834-5.687z" fill="#303030"/>
        <path d="M232.74 27h3.727s2.733.426 3.479 4.68c.745 4.256 1.49 5.32.745 5.32S231 36.787 231 36.574c0-.212 1.74-9.574 1.74-9.574z" fill="#B2DFD8"/>
    </g>
</svg>
