<svg width="204" height="103" viewBox="0 0 204 103" xmlns="http://www.w3.org/2000/svg">
    <g fill-rule="nonzero" fill="none">
        <circle fill="#AFEAEF" cx="56" cy="74" r="10"/>
        <path fill="#303030" d="M55.5 73h.026L56 102h-1z"/>
        <circle fill="#AFEAEF" cx="35.5" cy="44.5" r="20.5"/>
        <path fill="#303030" d="M35 45h.053L36 102h-2z"/>
        <path fill="#AFEAEF" d="M76 72h93v28H76z"/>
        <path fill="#00C1D4" d="M117 78h11v22h-11z"/>
        <path fill="#AFEAEF" d="M82 40h82v25H82z"/>
        <path d="M172.169 41H72.83a.831.831 0 0 1-.77-.516.818.818 0 0 1 .194-.901l27.15-25.852V2.471c0-.455.372-.823.83-.824h5.359c.459 0 .83.37.831.824v4.575l2.05-1.953c6.962-6.628 17.908-6.809 25.088-.413l39.161 34.884a.818.818 0 0 1 .22.907.831.831 0 0 1-.775.529z" fill="#00C1D4"/>
        <path d="M102.5 46c1.459 0 2.858.538 3.89 1.495 1.03.957 1.61 2.256 1.61 3.61V58H97v-6.896c0-1.353.58-2.652 1.61-3.609 1.032-.957 2.431-1.495 3.89-1.495zM122.5 46c3.038 0 5.5 2.285 5.5 5.104V58h-11v-6.896c0-2.819 2.462-5.104 5.5-5.104zM141.5 46c3.038 0 5.5 2.285 5.5 5.104V58h-11v-6.896c0-2.819 2.462-5.104 5.5-5.104zM149.5 78c3.038 0 5.5 2.285 5.5 5.104V90h-11v-6.896c0-2.819 2.462-5.104 5.5-5.104zM98.5 78c3.038 0 5.5 2.285 5.5 5.104V90H93v-6.896c0-1.353.58-2.652 1.61-3.609C95.643 78.538 97.042 78 98.5 78z" fill="#FFF"/>
        <path d="m182.562 72.756-17.438-7.693a.737.737 0 0 0-.298-.063h-83.11a.737.737 0 0 0-.276.054l-18.982 7.693a.732.732 0 0 0 .277 1.411h4.925v25.278h-.551V102H177.89v-2.564h-.918V74.158h5.292a.732.732 0 0 0 .297-1.403zm-7.059 26.68H69.13V74.158h106.373v25.278zM96 58h14v2H96z" fill="#00C1D4"/>
        <path fill="#CACACA" d="M116 58h14v2h-14z"/>
        <path fill="#00C1D4" d="M135 58h14v2h-14zM143 89h14v2h-14zM91 89h14v2H91z"/>
        <path d="M203.776 102.05H.224C.1 102.05 0 102.028 0 102c0-.028.1-.05.224-.05h203.552c.124 0 .224.022.224.05 0 .028-.1.05-.224.05z" fill="#303030"/>
        <path d="M153 39.365a27.525 27.525 0 0 1-.04 1.395 23.418 23.418 0 0 1-.178 1.859c-.013.096-.027.195-.043.293a18.725 18.725 0 0 1-.243 1.379c-.047.231-.1.464-.154.695l-.013.056c-.027.115-.055.227-.084.341-.01.034-.016.065-.027.099a20.513 20.513 0 0 1-.347 1.217c-.109.348-.225.69-.352 1.032a26.195 26.195 0 0 1-.947 2.235c-.003.002-.003.007-.005.009a14.111 14.111 0 0 1-.21.426c-.069.135-.14.27-.212.401l-.115.218-.014.025c-.145.266-.295.53-.453.793a11.73 11.73 0 0 1-.284.467c-.048.076-.095.154-.145.23l-.03.048-.258.394c-.107.16-.215.316-.327.473l-2.462 3.897-.107-.087-.029-.027h-.002l-.098-.081-.267-.224c-.082.078-.161.157-.243.233-.032.031-.066.06-.097.092l-.073.067a23.878 23.878 0 0 1-15.868 6.67h-.007a26.155 26.155 0 0 1-13.192-3.159 25.006 25.006 0 0 1-1.519-.885c-.002-.003-.004-.003-.007-.005a25.398 25.398 0 0 1-1.687-1.291c-5.967-4.974-9.234-12.425-8.827-20.132a22.427 22.427 0 0 1 .26-2.518h48.475a24.285 24.285 0 0 1 .231 3.365z" fill="#FFF"/>
        <path d="M152.802 35.903C150.995 23.887 140.67 15 128.518 15s-22.477 8.887-24.284 20.903A23.881 23.881 0 0 0 104 38h49c-.036-.702-.102-1.4-.198-2.097zM130 61h-14V49.475c.258-5.267 4.633-5.692 8.743-5.41 1.394 0 2.731.57 3.717 1.585a5.49 5.49 0 0 1 1.54 3.825V61z" fill="#CE0037"/>
        <path d="m110.355 35.78-.03.167c.01-.056.02-.112.032-.167h-.002zm-.278 2.06a4.84 4.84 0 0 1 .002 0c0-.017 0-.032.002-.048l-.004.047zm.278-2.06-.03.167c.01-.056.02-.112.032-.167h-.002zm-.296 2.313a4.84 4.84 0 0 1 .02-.254c0-.016 0-.031.002-.047l-.004.047c-.007.085-.014.17-.018.254zm69.273 41.045a1.516 1.516 0 0 0-.139-.13l-.002-.001-11.104-9.324-.287-.241-1.092-.917-.273-.23-1.557-1.308-.426-.357-.88-.74-.452-.38-4.25-3.567-2.438-2.046-.328-.275-7.182-6.03c.11-.157.218-.313.323-.472l.256-.392.029-.047c.05-.076.096-.154.143-.23.027-.04.052-.08.074-.12a11.679 11.679 0 0 0 .206-.344c.158-.261.306-.524.45-.79l.013-.024.114-.217a13.35 13.35 0 0 0 .213-.41 14.1 14.1 0 0 0 .204-.413c.002-.002.002-.007.004-.009a18.555 18.555 0 0 0 .299-.64c.074-.17.148-.342.22-.514a26.199 26.199 0 0 0 .42-1.071 26.707 26.707 0 0 0 .528-1.63c.034-.119.065-.235.096-.353.023-.085.045-.17.065-.254.012-.034.018-.065.027-.099.03-.113.056-.225.083-.339l.014-.055a25.611 25.611 0 0 0 .343-1.736c.018-.11.033-.219.05-.328l.042-.293a23.45 23.45 0 0 0 .197-2.294 27.56 27.56 0 0 0 .018-.944 24.789 24.789 0 0 0-.229-3.348c-1.66-12.077-11.973-21.113-24.222-21.225-12.25-.112-22.727 8.734-24.61 20.779a23.346 23.346 0 0 0-.258 2.506 24.472 24.472 0 0 0 8.729 20.033 25.12 25.12 0 0 0 1.668 1.285c.002.002.005.002.007.005.19.134.381.265.574.395.307.2.617.397.928.584l.074.043c.27.16.54.314.812.464h.002a24.308 24.308 0 0 0 3.137 1.437 24.863 24.863 0 0 0 9.918 1.548h.007a24.702 24.702 0 0 0 13.01-4.458c.143-.1.286-.205.43-.31l.004-.002a.32.32 0 0 1 .034-.025l.29-.218c.024-.018.049-.036.073-.056a.108.108 0 0 0 .018-.016c.056-.04.11-.085.166-.127.056-.042.11-.087.166-.132a.21.21 0 0 0 .027-.02l.188-.151c.065-.052.128-.105.189-.157a11.54 11.54 0 0 0 .35-.296l.051-.045a.16.16 0 0 1 .022-.018c.074-.062.146-.127.218-.192l.052-.047c.11-.098.22-.196.327-.299l.076-.069.072-.067c.031-.03.065-.06.096-.091.081-.076.16-.154.24-.232l.265.223.096.08h.003l.029.027.105.087 1.565 1.316.034.03.027.02.177.149.354.299.354.297.052.042 1.648 1.383.229.192 1.59 1.335 8.229 6.91.287.24 11.263 9.456 2.888 2.426 1.074.901a2.28 2.28 0 0 0 3.583-.901 2.243 2.243 0 0 0-.509-2.426zm-64.952-51.72c4.59-5.414 11.897-7.724 18.787-5.94 6.889 1.786 12.136 7.348 13.49 14.302a16.96 16.96 0 0 1 .28 2.06 16.78 16.78 0 0 1 .058 1.452 18.231 18.231 0 0 1-.999 5.966v.002a18.274 18.274 0 0 1-3.357 5.886c-.031.036-.063.074-.096.11-.296.347-.608.682-.928 1.001-.003.002-.005.007-.007.009-.11.11-.222.22-.334.323-.229.221-.462.431-.7.632-.356.31-.722.6-1.096.872a23.175 23.175 0 0 1-.76.53 16.717 16.717 0 0 1-1.175.713c-.133.076-.267.147-.402.216-.134.072-.269.141-.406.208-.271.136-.545.263-.823.381a8.24 8.24 0 0 1-.417.175c-.087.035-.172.07-.26.102a.846.846 0 0 1-.105.04 1.83 1.83 0 0 1-.141.054 10.49 10.49 0 0 1-1.19.397c-.145.045-.29.085-.434.123-.146.04-.29.078-.435.111-.155.04-.31.076-.466.11a8.804 8.804 0 0 1-.408.082 14.343 14.343 0 0 1-1.22.194c-.043.007-.083.011-.123.016a7.365 7.365 0 0 1-.375.042l-.096.01c-.137.013-.276.024-.413.035a19.296 19.296 0 0 1-1.77.038s0 .002-.001 0c-.003.002-.003.002-.005 0a.003.003 0 0 1-.004 0 4.861 4.861 0 0 1-.336-.011c-.077-.003-.155-.005-.234-.011a7.523 7.523 0 0 1-.316-.02c-.034 0-.067-.005-.1-.007a.335.335 0 0 1-.048-.005c-.108-.009-.218-.018-.325-.029a17.308 17.308 0 0 1-.652-.076 9.067 9.067 0 0 1-.55-.082c-.085-.011-.168-.027-.251-.042a8.617 8.617 0 0 1-.33-.06 9.342 9.342 0 0 1-.343-.072c-.092-.02-.186-.04-.278-.063a14.597 14.597 0 0 1-.832-.214 13.86 13.86 0 0 1-1.022-.321 4.58 4.58 0 0 1-.227-.08c-.076-.025-.15-.054-.226-.083a14.635 14.635 0 0 1-.538-.21 14.865 14.865 0 0 1-.67-.29c-.126-.06-.252-.118-.375-.178a16.89 16.89 0 0 1-1.438-.781c-.116-.07-.233-.143-.35-.217-.145-.089-.286-.183-.428-.276-.078-.054-.154-.105-.23-.159a19.909 19.909 0 0 1-1.364-1.042 13.997 13.997 0 0 1-.482-.42c-.054-.048-.108-.095-.16-.146l-.004-.005a7.097 7.097 0 0 1-.233-.216 10.078 10.078 0 0 1-.348-.342 12.306 12.306 0 0 1-.338-.348 9.665 9.665 0 0 1-.325-.354 12.18 12.18 0 0 1-.316-.362c-.101-.116-.2-.236-.294-.355a16.936 16.936 0 0 1-1.209-1.682 10.473 10.473 0 0 1-.273-.442 17.59 17.59 0 0 1-1.117-2.204 17.834 17.834 0 0 1-.531-1.401 15.3 15.3 0 0 1-.28-.93c-.003-.005-.003-.01-.005-.014a10.825 10.825 0 0 1-.119-.464 8.405 8.405 0 0 1-.096-.41c-.034-.155-.068-.309-.097-.465a9.14 9.14 0 0 1-.045-.24l-.036-.204-.033-.205a16.786 16.786 0 0 1-.173-1.477 11.46 11.46 0 0 1-.025-.4 9.968 9.968 0 0 1-.015-.392c-.002-.002-.002-.002 0-.005a.003.003 0 0 1 0-.004 14.075 14.075 0 0 1-.011-.582c0-.132.002-.262.004-.393.005-.183.011-.366.02-.549 0-.04.005-.078.007-.118l.007-.119a4.84 4.84 0 0 1 .02-.254c0-.016 0-.031.002-.047a17.005 17.005 0 0 1 .09-.866c.013-.095.024-.191.04-.287a7.6 7.6 0 0 1 .032-.206c.009-.069.02-.138.033-.207.016-.091.032-.185.05-.279.008-.056.02-.111.03-.167.043-.223.09-.446.142-.67.052-.225.11-.448.173-.671.06-.226.128-.45.2-.676a5.9 5.9 0 0 1 .11-.337c.073-.225.152-.449.24-.67a21.611 21.611 0 0 1 .41-.988c.049-.11.098-.219.152-.328.1-.216.206-.433.32-.645a16.631 16.631 0 0 1 .729-1.265 18.46 18.46 0 0 1 1.547-2.113zm-4.303 10.421a4.84 4.84 0 0 1 .002 0c0-.016 0-.031.002-.047l-.004.047zm.278-2.06-.03.168c.01-.056.02-.112.032-.167h-.002z" fill="#303030"/>
        <path d="M116.636 53.225c-7.454-6.299-8.836-17.27-3.18-25.225a18.785 18.785 0 0 0-4.343 19.605 18.744 18.744 0 0 0 14.32 12.1A18.722 18.722 0 0 0 142 52.12c-6.88 6.922-17.91 7.402-25.364 1.105z" fill="#000" opacity=".3"/>
    </g>
</svg>
