<?xml version="1.0" encoding="UTF-8"?>
<svg width="365px" height="1004px" viewBox="0 0 365 1004" version="1.1" xmlns="http://www.w3.org/2000/svg" xmlns:xlink="http://www.w3.org/1999/xlink">
    <title>icons</title>
    <g id="icons" stroke="none" stroke-width="1" fill="none" fill-rule="evenodd">
        <g id="Group-13" transform="translate(24.000000, 19.000000)" stroke="#009681">
            <circle id="Oval-2" fill="#E0F2F0" cx="8" cy="8" r="7.5"></circle>
            <polyline id="Path-2" stroke-linejoin="round" points="5 8.08048179 7.12442791 10.2049097 11.3293376 6"></polyline>
        </g>
        <g id="noun_Assessment_3757306-Copy" transform="translate(22.000000, 61.000000)" fill-rule="nonzero">
            <path d="M29.3899375,34.7938387 C29.4090103,34.631316 29.3635168,34.467783 29.2634438,34.3391384 L24.7298343,28.5114376 C24.6297238,28.3826363 24.4831144,28.2993035 24.3222433,28.2797629 C24.161424,28.2620541 24.0000582,28.307875 23.8718767,28.4076474 L23.3915671,28.7894473 L22.6173275,27.7941726 C25.2074169,25.3070255 25.4050814,21.2004066 23.0660927,18.4707619 C20.727104,15.7411172 16.6784452,15.3535518 13.8742708,17.5908576 C11.0700964,19.8281634 10.5018627,23.8993088 12.5841884,26.8337316 C14.6665141,29.7681544 18.6631631,30.5283473 21.6579305,28.559626 L22.4309479,29.5536651 L21.9506382,29.935465 C21.6869798,30.146175 21.6411141,30.5325908 21.8479766,30.800384 L26.380975,36.6280848 C26.5895765,36.8944442 26.9717671,36.9405354 27.2364883,36.7312573 L29.1577268,35.2040574 C29.285853,35.1038407 29.3693762,34.9562904 29.3899375,34.7938387 Z M21.4000543,27.2295041 C19.0124874,29.1277418 15.554892,28.7097908 13.6772864,26.2959829 C11.7996808,23.882175 12.2130713,20.3865641 14.6006215,18.4883049 C16.9881716,16.5900457 20.4457707,17.0079656 22.3233976,19.4217566 C24.1975379,21.8365733 23.784472,25.3294386 21.4000543,27.2295041 L21.4000543,27.2295041 Z M26.9608908,35.380748 L23.1831885,30.5248456 L24.1438077,29.7606278 L27.92151,34.6171481 L26.9608908,35.380748 Z" id="Shape" fill="#303030"></path>
            <path d="M3.56321293,35.6019202 C5.51424188,34.8023232 7.52673169,34.1655114 9.58052689,33.6978627 C11.5590296,33.2435152 13.5704697,32.9507644 15.5953965,32.8224411 C16.7975753,32.7434261 18.0029121,32.7252813 19.2068848,32.7680748 C19.6065318,32.7779596 20.0065861,32.795258 20.4070478,32.8199699 L20.4815997,31.5843713 C20.0666757,31.5584238 19.6517518,31.5405076 19.2435497,31.5306228 C18.0061108,31.4873769 16.7521727,31.505293 15.515956,31.5868425 C13.4726409,31.7182723 11.4426982,32.0118064 9.44486692,32.4647353 L9.44486692,6.79579229 L18.6110809,6.79579229 L18.6110809,14.8271832 L19.8332428,14.8271832 L19.8332428,10.9189848 L26.5551331,14.5800634 L26.5551331,27.1831691 L27.7772949,27.1831691 L27.7772949,17.9161797 L32.0548615,17.9161797 L32.0548615,34.1365003 C31.7138783,34.0061446 31.3741173,33.8677576 31.0337452,33.7479045 L30.631654,34.9149274 C31.2335687,35.1268325 31.8403721,35.3578895 32.4349538,35.6013024 C33.4365155,36.0146101 34.4515209,36.4853732 35.4426942,37 L36,35.9003172 C35.1004889,35.4344966 34.1869229,35.0113041 33.2770234,34.6245617 L33.2770234,17.2983804 C33.2770234,16.9571792 33.0034331,16.6805811 32.6659424,16.6805811 L27.7772949,16.6805811 L27.7772949,14.2093839 C27.777177,13.9821975 27.6537342,13.7734068 27.4558664,13.6657205 L19.8332428,9.5141092 L19.8332428,6.17799299 C19.8332428,5.83679186 19.5596525,5.56019369 19.2221619,5.56019369 L17.3889191,5.56019369 L17.3889191,3.70679579 C17.3889191,3.36559466 17.1153288,3.08899649 16.7778381,3.08899649 L14.9445953,3.08899649 L14.9445953,0 L13.7224335,0 L13.7224335,3.08899649 L11.8891907,3.08899649 C11.5517,3.08899649 11.2781097,3.36559466 11.2781097,3.70679579 L11.2781097,5.56019369 L8.83378599,5.56019369 C8.4962953,5.56019369 8.22270505,5.83679186 8.22270505,6.17799299 L8.22270505,16.3784772 L2.95885388,20.5177325 C2.81007607,20.6347389 2.72303433,20.8146119 2.72297664,21.0051762 L2.72297664,34.6239439 C1.81368821,35.0113041 0.900122216,35.4344966 0,35.9003172 L0.557305812,37 C1.55153449,36.4853732 2.56348452,36.0176991 3.56321293,35.6019202 Z M12.5002716,4.32459509 L16.1667572,4.32459509 L16.1667572,5.56019369 L12.5002716,5.56019369 L12.5002716,4.32459509 Z M3.94513851,21.30728 L8.22270505,17.9433628 L8.22270505,32.7637502 C6.77248787,33.1383002 5.34435723,33.5953761 3.94513851,34.1327935 L3.94513851,21.30728 Z" id="Shape" fill="#303030"></path>
            <g id="`" transform="translate(14.882812, 19.251953)" fill="#D8232A">
                <path d="M0.568359375,0 L6.20507812,0 L6.20507812,0.01171875 C5.87304688,0.5234375 5.68554688,0.796875 5.64257812,0.83203125 L4.13671875,0.83203125 C4.34375,1.07421875 4.484375,1.36914062 4.55859375,1.71679688 L6.1640625,1.71679688 C6.18359375,1.72070312 6.19335938,1.72851562 6.19335938,1.74023438 C5.83398438,2.27929688 5.65039062,2.54882812 5.64257812,2.54882812 L4.59960938,2.54882812 C4.57617188,2.82617188 4.44335938,3.16015625 4.20117188,3.55078125 C3.88085937,3.9453125 3.57421875,4.20117188 3.28125,4.31835938 C2.734375,4.58007812 2.2109375,4.7109375 1.7109375,4.7109375 L1.7109375,4.72265625 C1.7109375,4.76171875 2.84179688,6.10351562 5.10351562,8.74804688 L3.609375,8.74804688 C1.40625,6.18164062 0.3046875,4.89257812 0.3046875,4.88085938 L0.3046875,4.1015625 L0.31640625,4.07226562 C0.51171875,4.09960938 0.740234375,4.11328125 1.00195312,4.11328125 C2.23632812,4.11328125 3.00390625,3.71289062 3.3046875,2.91210938 C3.3515625,2.79492188 3.375,2.67382812 3.375,2.54882812 L0.0234375,2.54882812 C0.0078125,2.54882812 0,2.54101562 0,2.52539062 C0.37109375,1.98632812 0.560546875,1.71679688 0.568359375,1.71679688 L3.22851562,1.71679688 L3.22851562,1.70507812 C3.07617188,1.39648438 2.78125,1.15625 2.34375,0.984375 C2.03125,0.8828125 1.75,0.83203125 1.5,0.83203125 L0.01171875,0.83203125 L0.01171875,0.802734375 C0.37109375,0.267578125 0.556640625,0 0.568359375,0 Z" id="Shape"></path>
            </g>
        </g>
        <g id="Group-22-Copy" transform="translate(22.000000, 120.000000)">
            <ellipse id="Oval" stroke="#303030" cx="16.5" cy="23.7742619" rx="16" ry="15.7257381"></ellipse>
            <path d="M15.8723538,-1.49867163 C16.7194881,-1.4015037 17.2462358,-1.07356941 17.601868,-0.674246369 L17.601868,-0.674246369 L18.6134301,1.83595845 L20.560748,1.87538429 C21.0651866,1.88501938 21.5385063,2.05194629 21.9250605,2.33347584 C22.3182007,2.61980193 22.6216317,3.02430654 22.7805911,3.50357113 C22.9412469,3.98795057 22.9371713,4.49578838 22.7898379,4.95961237 C22.644007,5.41870596 22.3574528,5.83518969 21.947702,6.14149467 L21.947702,6.14149467 L20.451191,7.257763 L20.9938303,9.02106618 C21.1419024,9.5084648 21.1253025,10.0152668 20.9668874,10.4748184 C20.8101949,10.9293728 20.5143668,11.3381733 20.0997183,11.6334965 C19.6919592,11.9239128 19.2133161,12.0725835 18.7329147,12.0771589 C18.2526754,12.0817328 17.7713388,11.9422965 17.3575324,11.6594249 L17.3575324,11.6594249 L15.7905484,10.5872651 L14.227149,11.6588304 C13.8128538,11.9435871 13.3296545,12.0841779 12.8475413,12.0796368 C12.3652667,12.0750942 11.8847521,11.9253346 11.4759506,11.632734 C11.0602086,11.3351656 10.7646802,10.9235143 10.6095973,10.4664186 C10.4528256,10.0043454 10.4391745,9.49533149 10.5896905,9.01273242 L10.5896905,9.01273242 L11.1297043,7.25617694 L9.62534046,6.13535545 C9.21958467,5.82921678 8.93537025,5.41316544 8.79113574,4.9550984 C8.64542946,4.49235722 8.64220187,3.98622183 8.80256164,3.50357096 C8.96122995,3.02601102 9.26340153,2.62268778 9.65489801,2.33668425 C10.0398467,2.05546415 10.5111959,1.8880163 11.0172809,1.87664017 L11.0172809,1.87664017 L12.921682,1.83811551 L13.5410439,0.0873851745 C13.7137943,-0.402970257 14.0377579,-0.810493826 14.45182,-1.09011295 C14.8589706,-1.3650647 15.3532131,-1.51592257 15.8723538,-1.49867163 Z" id="Path" stroke="#EDFAF9" stroke-width="3" fill="#D8232A"></path>
            <g id="noun_expert_4201050" transform="translate(9.416849, 14.432170)" fill="#303030" fill-rule="nonzero">
                <path d="M6.8785481,0 C4.2950224,0 2.1883504,2.07163613 2.1883504,4.61221864 C2.1883504,6.3261465 3.14960676,7.82180208 4.56678395,8.61573293 C1.90445664,9.54866417 3.70482581e-06,12.041373 3.70482581e-06,14.9826137 L3.70482581e-06,16.869402 C-0.00105787465,17.1461094 0.226154026,17.3712906 0.507538314,17.3723969 L13.2465547,17.3723969 C13.527939,17.3712906 13.7551509,17.1461094 13.7540893,16.869402 L13.7540893,14.9826137 C13.7540893,12.0426418 11.8486542,9.55163734 9.18730809,8.61770242 C10.6050062,7.82420713 11.5657426,6.32735849 11.5657426,4.61221864 C11.5657426,2.07163613 9.46207381,0 6.8785481,0 L6.8785481,0 Z M6.8785481,1.00210954 C8.9113484,1.00210954 10.5466945,2.61320741 10.5466945,4.61221864 C10.5466945,6.61121093 8.9113484,8.21842663 6.8785481,8.21842663 C4.8457478,8.21842663 3.20839984,6.61121093 3.20839984,4.61221864 C3.20839984,2.61320741 4.8457478,1.00210954 6.8785481,1.00210954 Z M6.87469661,9.2205172 C6.87569799,9.2205172 6.87662235,9.2205172 6.8785481,9.2205172 C10.1325047,9.22203219 12.7390238,11.7823285 12.7390238,14.9826137 L12.7390238,16.3702883 L1.01905549,16.3702883 L1.01905549,14.9826137 C1.01905549,11.7811923 3.62018253,9.2205172 6.87556319,9.2205172 L6.87469661,9.2205172 Z" id="Shape"></path>
            </g>
        </g>
        <g id="noun_protection_2079697-copy" transform="translate(23.000000, 182.000000)" fill-rule="nonzero">
            <g id="Group">
                <path d="M31.1864284,6.98852757 C27.352077,6.98852757 20.3647168,6.12702423 16.6544935,0.357208703 C16.5112987,0.134634217 16.264599,0 16,0 C15.7350118,0 15.4887013,0.134634217 15.3455065,0.357208703 C11.6352832,6.12702423 4.6483121,6.98852757 0.813571608,6.98852757 C0.403443097,6.98852757 0.0633555084,7.30682465 0.0368956044,7.71656404 C0.0213309551,7.9527576 -0.317978401,13.5743198 1.41086503,19.9573825 C3.72727397,28.5078227 8.68889507,34.2414504 15.7595262,36.5391817 C15.8377385,36.5640852 15.9190638,36.576926 16,36.576926 C16.0809362,36.576926 16.1622615,36.5640852 16.2404738,36.5387926 C23.3111049,34.2414504 28.272726,28.5074336 30.589135,19.9569934 C32.3179784,13.5739307 31.978669,7.95236848 31.9631044,7.71617493 C31.9366445,7.30682465 31.596946,6.98852757 31.1864284,6.98852757 Z M16,34.9788256 C1.99726319,30.2292729 1.50814409,12.3505493 1.56767887,8.53448637 C5.60047952,8.42281001 12.0380185,7.34690362 16,2.13469166 C19.9619815,7.34729274 26.4002987,8.42281001 30.4330994,8.53448637 C30.4949688,12.3493819 30.0179123,30.2242144 16,34.9788256 Z" id="Shape" fill="#303030"></path>
                <path d="M24.8566746,12.7396655 L14.7015191,22.2127002 L9.03209559,17.1078844 C8.71302028,16.8203275 8.22078824,16.8463982 7.93284223,17.1654736 C7.64528533,17.484938 7.670967,17.9767809 7.99043143,18.2647269 L14.1902204,23.8469884 C14.3384737,23.9804553 14.5248604,24.0469942 14.7108579,24.0469942 C14.9015249,24.0469942 15.0921918,23.9769532 15.2416125,23.8376496 L25.9185728,13.8778305 C26.2329787,13.584826 26.2500998,13.0922048 25.9567062,12.7777989 C25.6633126,12.4630039 25.1706914,12.4458828 24.8566746,12.7396655 Z" id="Path" fill="#D8232A"></path>
            </g>
        </g>
        <g id="Group-25-Copy" transform="translate(21.000000, 245.000000)" fill-rule="nonzero">
            <g id="Group" fill="#303030">
                <path d="M0,20.8998507 L0,34.3647564 C0,35.4305488 0.868368471,36.2989171 1.93564515,36.2989171 L6.04740666,36.2989171 C7.11319904,36.2989171 7.98156736,35.4305486 7.98156736,34.3647564 L7.98156736,33.4102933 L9.30415927,33.4102933 C9.62478761,33.4102933 9.93650957,33.4637314 10.2319034,33.5720918 L20.1981008,37.1197851 C21.0715993,37.4262741 22.0119868,37.3293451 22.7809416,36.8882201 L36.5872572,29.0194663 C37.145388,28.7582136 37.5832831,28.2965682 37.7480506,27.8542197 C37.7821915,27.8022661 37.8341452,27.6924212 37.8549267,27.6330456 C38.0746166,27.0199924 38.0419599,26.3356884 37.7673476,25.7612292 C37.194373,24.539576 35.7352171,24.0126173 34.6100492,24.544029 L26.7657879,26.9995819 C26.7670868,26.9839958 26.7758076,26.9702652 26.7769208,26.9546791 C26.8184838,26.3000628 26.5854344,25.6662281 26.1223046,25.1734106 C25.63394,24.6523896 24.9422141,24.3525426 24.2282223,24.3525426 L18.9066811,24.3525426 L14.2946799,22.666275 C13.108652,22.2313486 11.8662171,22.0116588 10.6044852,22.0116588 L7.98156751,22.0116588 L7.98156751,20.8998504 C7.98156751,19.8325722 7.11319904,18.9642037 6.04740681,18.9642037 L1.93564515,18.9642037 C0.868368471,18.9642037 0,19.8325725 0,20.8998507 Z M10.6044854,23.5316749 C11.6880904,23.5316749 12.7538828,23.7201924 13.7721746,24.0942589 L18.510349,25.8265425 C18.5949593,25.8562304 18.6825383,25.8725586 18.7716017,25.8725586 L24.2282224,25.8725586 C24.5206473,25.8725586 24.8145567,26.0002162 25.0149493,26.2139684 C25.1871387,26.3980329 25.2747176,26.626629 25.2598737,26.8581938 C25.2450299,27.0838212 25.1485444,27.2990578 24.9956523,27.4534344 C24.9128974,27.5355398 24.8152989,27.5960286 24.7125048,27.6423232 L24.6149061,27.672846 C24.5225028,27.7027193 24.428244,27.7295312 24.3291609,27.7295312 L18.4673015,27.7295312 C16.7528305,27.7295312 15.3575036,29.1248583 15.3575036,30.8393291 C15.3575036,31.2594116 15.697429,31.599337 16.1175115,31.599337 C16.537594,31.599337 16.8775194,31.2594116 16.8775194,30.8393291 C16.8775194,29.9620544 17.5900268,29.249547 18.4673015,29.249547 L24.3291609,29.249547 C24.5187918,29.249547 24.7035984,29.2217147 24.884694,29.1797807 C24.8891472,29.1782963 24.8932292,29.1797807 24.8976824,29.1782963 L25.1144034,29.1103854 C25.1669137,29.0925727 25.2216505,29.0819964 25.272862,29.0606584 L35.1592735,25.9586535 C35.8872887,25.6133124 36.7177703,26.3184123 36.4120991,27.1446814 C36.3200669,27.3703087 36.1582683,27.5424981 35.8895937,27.6701556 L22.0283557,35.5671128 C21.6275702,35.7957089 21.1436589,35.8372719 20.7042793,35.6873484 L10.7484712,32.142624 C10.2897945,31.9748878 9.80291446,31.8902776 9.30415927,31.8902776 L7.98156751,31.8902776 L7.98156751,23.5316749 L10.6044854,23.5316749 L10.6044854,23.5316749 Z M1.52001582,20.8998507 C1.52001582,20.6712546 1.70704906,20.4842213 1.93564515,20.4842213 L6.04740666,20.4842213 C6.27600275,20.4842213 6.46155154,20.6712546 6.46155154,20.8998507 C6.46155154,21.6044838 6.46155154,34.6335935 6.46155154,34.3647564 C6.46155154,34.5933525 6.27600275,34.7789013 6.04740666,34.7789013 L1.93564515,34.7789013 C1.70704906,34.7789013 1.52001582,34.5933525 1.52001582,34.3647564 L1.52001582,20.8998507 Z" id="Shape"></path>
                <path d="M11.1893352,3.2356036 C6.46578083,7.95730688 6.94915726,15.8589179 12.4688798,19.9394493 C16.8703077,23.203205 22.9018122,22.7665797 26.8110617,18.8573286 C31.1272488,14.5442134 31.1268574,7.53645387 26.8110617,3.22372833 C22.5092982,-1.07951946 15.5029739,-1.07358197 11.1893352,3.2356036 Z M25.7363631,17.7826293 C22.3742187,21.1432908 17.1743975,21.5381386 13.3743579,18.7177953 C8.62742224,15.2200539 8.17768239,8.39665453 12.2640338,4.3103016 C15.9843786,0.592923246 22.0278454,0.589911486 25.736363,4.29842648 C29.4574371,8.01643306 29.4592956,14.0627686 25.7363631,17.7826293 Z" id="Shape"></path>
            </g>
            <g id="`" transform="translate(15.863281, 6.793945)" fill="#D8232A">
                <path d="M0.663085938,0 L7.23925781,0 L7.23925781,0.013671875 C6.85188802,0.610677083 6.63313802,0.9296875 6.58300781,0.970703125 L4.82617188,0.970703125 C5.06770833,1.25325521 5.23177083,1.59733073 5.31835938,2.00292969 L7.19140625,2.00292969 C7.21419271,2.00748698 7.22558594,2.01660156 7.22558594,2.03027344 C6.8063151,2.65917969 6.5921224,2.97363281 6.58300781,2.97363281 L5.36621094,2.97363281 C5.33886719,3.29720052 5.18391927,3.68684896 4.90136719,4.14257812 C4.52766927,4.60286458 4.16992188,4.90136719 3.828125,5.03808594 C3.19010417,5.34342448 2.57942708,5.49609375 1.99609375,5.49609375 L1.99609375,5.50976562 C1.99609375,5.55533854 3.31542969,7.12076823 5.95410156,10.2060547 L4.2109375,10.2060547 C1.640625,7.21191406 0.35546875,5.70800781 0.35546875,5.69433594 L0.35546875,4.78515625 L0.369140625,4.75097656 C0.597005208,4.7828776 0.863606771,4.79882812 1.16894531,4.79882812 C2.60904948,4.79882812 3.50455729,4.33170573 3.85546875,3.39746094 C3.91015625,3.26074219 3.9375,3.11946615 3.9375,2.97363281 L0.02734375,2.97363281 C0.00911458333,2.97363281 0,2.96451823 0,2.94628906 C0.432942708,2.31738281 0.653971354,2.00292969 0.663085938,2.00292969 L3.76660156,2.00292969 L3.76660156,1.98925781 C3.58886719,1.62923177 3.24479167,1.34895833 2.734375,1.1484375 C2.36979167,1.02994792 2.04166667,0.970703125 1.75,0.970703125 L0.013671875,0.970703125 L0.013671875,0.936523438 C0.432942708,0.312174479 0.649414062,0 0.663085938,0 Z" id="Shape"></path>
            </g>
        </g>
        <g id="Group-8-Copy" transform="translate(21.000000, 309.000000)" fill-rule="nonzero">
            <path d="M82.3338565,60.1710482 C81.9434382,60.5347267 81.4858962,60.489198 81.116272,60.0498896 C81.023136,59.9384373 80.9475897,60.2356108 81.0401212,60.346332 C81.4494695,60.8277599 81.9539336,60.880156 82.386943,60.4862195 C82.4302849,60.4551192 82.4538517,60.3633766 82.4407897,60.2766011 C82.4259379,60.1898956 82.3782356,60.142809 82.3338565,60.1710482 L82.3338565,60.1710482 Z" id="Path" fill="#FFFFFF"></path>
            <path d="M43.786418,4.12799881 C43.5286269,4.43777341 43.4264858,4.84165497 43.507479,5.23096674 C43.5884722,5.6202785 43.8442798,5.95502917 44.2060689,6.14514379 L43.3917816,10.8479454 L45.7421794,9.84292339 L46.155099,5.5311474 C46.4528387,4.91076095 46.2219266,4.17385876 45.6176101,3.8158765 C45.0132937,3.45789425 44.2265902,3.59198596 43.786418,4.12799881 L43.786418,4.12799881 Z" id="Path" fill="#F39898"></path>
            <polygon id="Path" fill="#F39898" points="65.8105001 73.7660288 63.8505104 73.7659112 62.9180834 66.5340652 65.8108688 66.5341828"></polygon>
            <path d="M65.8107486,75.9356179 L59.3021016,75.9353505 L59.3021016,75.844313 C59.3021981,74.2971247 60.436366,73.0429144 61.8354483,73.0428324 L61.835609,73.0428324 L65.8108688,73.0430102 L65.8107486,75.9356179 Z" id="Path" fill="#303030"></path>
            <polygon id="Path" fill="#F39898" points="52.0697692 73.7660288 50.1097796 73.7659112 49.1773525 66.5340652 52.070138 66.5341828"></polygon>
            <path d="M52.7932141,75.9356179 L46.2845671,75.9353505 L46.2845671,75.844313 C46.2846636,74.2971247 47.4188315,73.0429144 48.8179138,73.0428324 L48.8180745,73.0428324 L52.7933343,73.0430102 L52.7932141,75.9356179 Z" id="Path" fill="#303030"></path>
            <path d="M51.0376715,37.6062108 L50.28651,38.590772 C50.28651,38.590772 50.2185081,39.050558 49.0791438,42.7964085 L48.4541562,70.9517924 L52.2349103,70.9517924 L57.2885285,48.4242321 L62.5334591,71.4037374 L65.8108688,71.5964397 L65.6567401,45.4777286 C65.6567401,45.4777286 66.0707327,40.1043801 64.6034106,39.1064844 C63.1360886,38.1085886 51.0376715,37.6062108 51.0376715,37.6062108 Z" id="Path" fill="#303030"></path>
            <circle id="Oval" fill="#F39898" cx="57.4941107" cy="10.4863472" r="3.97757998"></circle>
            <path d="M61.7272085,11.5711418 L61.6642936,11.4360223 C61.5670525,11.2270302 60.7616517,9.4895972 60.6605704,9.04286184 L59.6469816,9.1709365 L57.0075269,9.17137972 L57.3742786,8.58038881 L56.4046433,8.71626862 C56.0501687,8.76253771 55.711263,8.89976262 55.416546,9.11635504 C55.2357501,9.24540159 55.0828988,9.4147045 54.9683569,9.6127834 C54.6219859,10.2499774 54.0928023,11.29221 54.0874848,11.3026823 L54.0368855,11.4023868 L53.5971439,10.6077341 C53.5913836,10.5768891 53.0463962,7.52323741 54.8702592,6.48761158 C54.9643388,6.28236277 55.7659296,4.66792623 57.6603601,4.77689548 C57.86861,4.52186269 58.1619781,4.36519966 58.4769561,4.34082089 C58.9096089,4.31657748 59.3587139,4.56072986 59.8097099,5.06953338 C60.4088126,5.74531513 61.2293372,6.67076941 61.7255909,7.69834183 L61.8625022,7.90815805 C62.0569971,8.20844233 62.1533176,8.56953324 62.1363855,8.93490511 C62.2417819,9.51802772 62.2043132,10.1205655 62.0276527,10.683446 L61.7272085,11.5711418 Z" id="Path" fill="#303030"></path>
            <path d="M59.3730575,15.1871236 L61.5448339,16.3979026 L65.8108688,17.6027973 L64.5375038,28.8639553 L64.7691797,39.9564733 C64.7691797,39.9564733 57.5480251,44.9463686 50.6237453,39.118813 L50.6237453,25.1565491 L51.0333754,17.6028023 C51.0333754,17.6028023 52.6903339,17.127985 53.5246647,17.9470531 L55.1070326,15.8736683 L59.3730575,15.1871236 Z" id="Path" fill="#AFEAEF"></path>
            <polygon id="Path" fill="#AFEAEF" points="52.070138 18.9069878 51.1020219 17.8872 45.7671033 17.2949815 46.2677486 9.2653585 43.3591117 7.23196361 41.2221926 18.5361559 51.0935706 25.3118726"></polygon>
            <path d="M62.2222477,43.0073812 C62.1363172,42.6166301 62.2550627,42.2130531 62.5465317,41.9052456 C62.8380008,41.5974381 63.2722528,41.417019 63.7324382,41.4125361 L65.4850527,36.8830144 L67.2572616,38.8359303 L65.321251,42.8378373 C65.2777697,43.5214899 64.6495202,44.0689898 63.8588838,44.1122449 C63.0682474,44.1555 62.3651312,43.680838 62.2222504,43.0073812 L62.2222477,43.0073812 Z" id="Path" fill="#F39898"></path>
            <path d="M63.8672786,18.6395633 L65.6104594,17.3567127 C65.6104594,17.3567127 67.3928609,18.2641099 67.9352581,19.8910749 C68.4776554,21.5180399 69.4268506,30.7792255 69.4268506,30.7792255 L66.8504636,42.6685853 L63.9692493,40.8243303 L65.3588711,31.4049812 L62.9180834,24.5216677 L63.8672786,18.6395633 Z" id="Path" fill="#AFEAEF"></path>
            <rect id="Rectangle" fill="#E6E6E6" x="3.6159818" y="0" width="40.4989962" height="10.1247491"></rect>
            <polygon id="Path" fill="#FFFFFF" points="5.06237453 8.67835633 42.6685853 8.67835633 42.6685853 1.44639272 5.06237453 1.44639272"></polygon>
            <circle id="Oval" fill="#009681" cx="12.2943381" cy="5.06237453" r="2.89278544"></circle>
            <rect id="Rectangle" fill="#009681" x="18.8031054" y="3.6159818" width="19.5263017" height="1"></rect>
            <rect id="Rectangle" fill="#009681" x="18.8031054" y="5.78557089" width="19.5263017" height="1"></rect>
            <polygon id="b9910470-ced5-4346-b4bb-f41b58844e24" fill="#E6E6E6" points="0 14.4639272 33.990229 16.9795919 33.990229 26.035069 0 25.3946182"></polygon>
            <polygon id="bc7e8449-b99b-4317-a70a-91d17db61b29" fill="#FFFFFF" points="1.44639272 23.8453246 33.2670326 24.5886763 33.2670326 17.9487508 1.44639272 15.9103199"></polygon>
            <path d="M8.35318776,16.6386836 C8.69645845,16.6639412 9.03076126,16.7743084 9.33276767,16.9620834 C9.63567201,17.1508984 9.90438147,17.4035781 10.1246199,17.7066979 C10.353492,18.020291 10.5327615,18.3769068 10.654406,18.7605869 C10.7827481,19.1642592 10.8482395,19.5904003 10.8479454,20.0197818 C10.849273,20.4426657 10.7837172,20.8623596 10.654406,21.2587071 C10.5344688,21.6267951 10.3547329,21.9657911 10.1246199,22.2579249 C9.90366505,22.5386682 9.63403205,22.7640847 9.33276767,22.919923 C9.0251833,23.0774252 8.69019839,23.1530436 8.35318776,23.1410504 C8.00827811,23.1285754 7.67003066,23.0294767 7.36256558,22.850821 C7.05111656,22.6692248 6.773547,22.4204095 6.54526144,22.1181841 C6.30573955,21.802267 6.1176993,21.4400481 5.99002223,21.0486356 C5.85453725,20.6352365 5.7852947,20.1974422 5.78557089,19.7561189 C5.78409018,19.3213635 5.85340799,18.8900704 5.99002223,18.4841786 C6.11606246,18.1093347 6.3046701,17.7659275 6.5453954,17.4729832 C6.77468369,17.1938322 7.05323338,16.9732369 7.36269955,16.8257254 C7.67601261,16.6779813 8.01483248,16.6139993 8.35318776,16.6386836 Z" id="a430bd6b-b2b0-4af3-a079-7f5fd15b0624" fill="#E6E6E6"></path>
            <polygon id="af019097-0949-417a-9d8d-f710312ce60c" fill="#E6E6E6" points="14.4639272 19.5263017 30.3742472 20.3639207 30.3742472 20.9726945 14.4639272 20.19176"></polygon>
            <polygon id="f94f3612-92b8-42d6-ae14-2a9ea684588e" fill="#E6E6E6" points="14.4639272 20.9726945 30.3742472 21.7411127 30.3742472 22.4190872 14.4639272 21.7137955"></polygon>
            <polygon id="bb553635-e14d-4b1e-b72c-855829e3ad86" fill="#E6E6E6" points="0 32.4609435 33.990229 31.8206399 33.990229 40.876117 0 43.3917816"></polygon>
            <polygon id="e92d7e39-9dcb-4c0c-b0b9-55aac094bc0c" fill="#FFFFFF" points="1.44639272 41.9453889 33.2670326 39.9067914 33.2670326 33.2670326 1.44639272 34.0104433"></polygon>
            <path d="M5.7885928,37.950245 C5.80384104,37.5092402 5.88853805,37.0749617 6.03863629,36.668163 C6.1795888,36.2848277 6.37996271,35.9335995 6.6301513,35.6313177 C6.86827195,35.3425111 7.15378503,35.1098182 7.47049858,34.9464354 C7.78373008,34.7855951 8.12439742,34.7061824 8.46784714,34.7139441 C8.80490357,34.7218226 9.13598763,34.8169137 9.43611143,34.9920406 C9.73121604,35.1657184 9.99189785,35.406669 10.2019993,35.6999579 C10.4211205,36.0054289 10.5883853,36.3548117 10.6952208,36.7301994 C10.8102655,37.1336206 10.8610217,37.5572803 10.8450852,37.9811111 C10.8306465,38.4100704 10.7505352,38.8328446 10.6083721,39.2303255 C10.4739151,39.6071559 10.2825014,39.9541446 10.0428446,40.255496 C9.81266847,40.5462112 9.53565417,40.7837772 9.22686835,40.9552728 C8.91850432,41.1258818 8.58097911,41.2169509 8.23827197,41.2220104 C7.89891701,41.2266508 7.56313682,41.1426035 7.25667734,40.9763128 C6.95298595,40.8101129 6.68325981,40.5730755 6.46493933,40.2805273 C6.23535152,39.9731083 6.05960032,39.6183192 5.94721172,39.23539 C5.82550846,38.821773 5.77173618,38.386105 5.7885928,37.950245 Z" id="f8649409-803b-4d56-993a-4da6ceb3c345" fill="#E6E6E6"></path>
            <polygon id="f70c4d59-0dd2-4f0b-ba41-17bf719deab5" fill="#E6E6E6" points="14.4639272 36.1419105 30.3742472 35.4366217 30.3742472 36.1145975 14.4639272 36.8830144"></polygon>
            <polygon id="ba176e8f-fd02-45f1-a5f1-dcef4bb8b7ed" fill="#E6E6E6" points="14.4639272 37.6637965 30.3742472 36.8830144 30.3742472 37.4917903 14.4639272 38.3294071"></polygon>
            <path d="M75.810994,76 L28.329282,76 C28.2604541,76 28.2046581,75.9774929 28.2046581,75.949729 C28.2046581,75.9219651 28.2604541,75.8994581 28.329282,75.8994581 L75.810994,75.8994581 C75.8798219,75.8994581 75.9356179,75.9219651 75.9356179,75.949729 C75.9356179,75.9774929 75.8798219,76 75.810994,76 Z" id="Path" fill="#CACACA"></path>
        </g>
        <g id="Group-Copy" transform="translate(23.000000, 411.000000)" fill-rule="nonzero">
            <ellipse id="Oval" fill="#E6E6E6" cx="41.5677966" cy="65.1228814" rx="41.5677966" ry="1.38559322"></ellipse>
            <path d="M45.3762547,14.3268406 C45.355031,14.419762 45.3411969,14.5142058 45.3348809,14.6092937 L37.9077557,18.8770977 L36.1024889,17.8419305 L34.1779661,20.3514792 L38.0399443,23.0932203 L46.513165,16.4349708 C47.2207522,16.695776 48.0165328,16.4932768 48.5118284,15.9263787 C49.0071239,15.3594806 49.0985918,14.546466 48.741557,13.8844307 C48.3845221,13.2223955 47.6534792,12.8494722 46.9054873,12.9478056 C46.1574953,13.046139 45.5486216,13.595212 45.3762547,14.3268441 L45.3762547,14.3268406 Z" id="Path" fill="#FFB8B8"></path>
            <path d="M29.5826094,17.0947741 L35.3108834,21.2457627 L37.8728814,17.9798394 L32.304463,13.4370474 C31.8202866,13.0420481 31.1974465,12.8672974 30.5825501,12.953929 C29.9676536,13.0405606 29.4150175,13.380922 29.054724,13.8948971 L29.054724,13.8948971 C28.3314172,14.9267296 28.5677595,16.3593632 29.5826094,17.0947741 Z" id="Path" fill="#CE0037"></path>
            <polygon id="Path" fill="#FFB8B8" points="17.5508475 63.2085328 19.4083286 63.7372881 22.1694915 56.2043535 19.428219 55.4237288"></polygon>
            <path d="M16.8900655,63.0827006 L23.3754931,63.0827006 L23.3754931,65.5884335 L19.3957967,65.5884335 C18.0119195,65.5884335 16.8900655,64.4665794 16.8900655,63.0827006 L16.8900655,63.0827006 L16.8900655,63.0827006 Z" id="Path" fill="#303030" transform="translate(20.132779, 64.335567) rotate(-165.317000) translate(-20.132779, -64.335567) "></path>
            <polygon id="Path" fill="#FFB8B8" points="36.2321117 64.6610169 37.8728814 64.3006117 37.5232203 56.3474576 35.1016949 56.879373"></polygon>
            <path d="M34.9672453,63.31303 L41.4526713,63.31303 L41.4526713,65.8187629 L37.4729782,65.8187629 C36.8084165,65.8187629 36.1710736,65.5547668 35.7011575,65.0848507 C35.2312414,64.6149346 34.9672453,63.9775917 34.9672453,63.31303 L34.9672453,63.31303 L34.9672453,63.31303 Z" id="Path" fill="#303030" transform="translate(38.209958, 64.565896) rotate(169.872140) translate(-38.209958, -64.565896) "></path>
            <path d="M30.7622887,6.05690488 C31.1930448,6.18059025 31.5435069,6.69835851 31.7539667,7.29818729 C31.948085,7.92820136 32.0795228,8.58267561 32.145639,9.24845906 C32.3110082,10.4883421 32.4698188,11.8306129 32.1277853,12.9789579 C31.7269037,14.3248748 30.6587398,15.0298131 29.7321903,14.6985365 C28.8056409,14.36726 28.0687398,13.1237837 27.8169613,11.6924164 C27.5877575,10.2461156 27.7354394,8.75183556 28.2405431,7.40651579 C28.5037485,6.69965875 28.8665443,6.04753322 29.3486729,5.72861325 C29.83929,5.37865377 30.4757443,5.53509372 30.8070331,6.087077" id="Path" fill="#303030"></path>
            <path d="M33.1675881,28.6355932 L36.9491525,62.5497747 L33.8259153,63.7372881 L28.0655528,40.995345 L20.0457786,61.7890798 L16.6271186,61.9792552 C16.6271186,61.9792552 21.3176995,29.624375 24.793917,28.8890588 L33.1675881,28.6355932 Z" id="Path" fill="#303030"></path>
            <circle id="Oval" fill="#FFB8B8" cx="30.9449153" cy="6.00423729" r="4.15677966"></circle>
            <path d="M33.082976,11.6674066 L28.3418878,11.0847458 C28.3418878,11.0847458 25.2498832,14.5806769 25.4560171,20.601448 C25.662151,26.6222191 24.940678,28.4672914 24.940678,28.4672914 L34.8259816,28.6355932 C33.3969685,26.7842735 39.3740864,16.151451 33.082976,11.6674066 Z" id="Path" fill="#CE0037"></path>
            <path d="M35.1417203,29.6839821 C35.0464734,29.6846601 34.9514288,29.6927583 34.8574704,29.7082014 L29.01279,23.5604883 L29.6086895,21.5977847 L26.7284574,20.3220339 L24.940678,24.639964 L33.3495619,31.2491555 C33.2570167,31.9856924 33.6353534,32.7019711 34.2997832,33.0481441 C34.964213,33.3943171 35.7761039,33.298156 36.3389091,32.8066281 C36.9017143,32.3151003 37.0980055,31.5307621 36.8319094,30.836703 C36.5658133,30.142644 35.8928504,29.6836781 35.1417117,29.6839753 L35.1417203,29.6839821 Z" id="Path" fill="#FFB8B8"></path>
            <path d="M29.2454504,13.4815473 L26.7881356,20.3215825 L30.2140326,22.1694915 L33.0512137,15.4002988 C33.297907,14.8117134 33.3207661,14.1333967 33.1144103,13.5250141 C32.9080545,12.9166314 32.4907122,12.4319239 31.9606192,12.1849845 L31.9606192,12.1849845 C31.4495762,11.9469163 30.8764127,11.949773 30.3672192,12.1929259 C29.8580258,12.4360788 29.4545132,12.8996101 29.2454504,13.4815473 L29.2454504,13.4815473 Z" id="Path" fill="#CE0037"></path>
            <path d="M30.551395,8.77826562 C31.1916685,8.40769376 31.2599743,7.51377086 31.1729616,6.77733916 C31.0859489,6.04090746 30.9405962,5.21993152 31.3720642,4.61778981 C31.8870228,3.89913291 32.9216117,3.88482494 33.8035126,3.86136667 C34.6854134,3.8379084 35.759376,3.57883258 35.9878799,2.72394782 C36.138866,2.15907327 35.815826,1.55289888 35.3522565,1.19831917 C34.8886869,0.843739462 34.3087367,0.686974339 33.7450394,0.537989136 C32.4840478,0.204707811 31.1819923,-0.131382698 29.8908208,0.051795092 C27.2296139,0.429335641 25.3644996,2.88187422 25.7044551,5.55667133 C25.9134369,7.20095334 26.2165354,7.91895927 26.0175875,8.64395727 C25.6470234,9.99434662 24.0492379,10.8618435 24.0174209,12.2621121 C23.9925316,13.3574099 24.9568549,14.2023632 25.8977047,14.7585081 C26.6439856,15.1996434 27.4493984,15.5739625 28.3094363,15.6772346 C29.1694741,15.7805067 30.095422,15.582784 30.7361031,14.9979564 C31.5624273,14.2436664 31.7668289,12.9834947 31.5298799,11.8881786 C31.2929309,10.7928624 30.6851266,9.82017057 30.0838575,8.87553381" id="Path" fill="#303030"></path>
            <path d="M95.7739353,11.0847458 L47.4125051,11.0847458 C46.7357906,11.0860085 46.1874587,11.7661426 46.1864407,12.6055188 L46.1864407,51.1317693 C46.1874587,51.9711455 46.7357906,52.6512796 47.4125051,52.6525424 L95.7739353,52.6525424 C96.4506498,52.6512796 96.9989816,51.9711455 96.9999997,51.1317693 L96.9999997,12.6055188 C96.9989816,11.7661426 96.4506498,11.0860085 95.7739353,11.0847458 Z M96.7275409,51.1317693 C96.7269568,51.7847244 96.300355,52.3138683 95.7739353,52.3145928 L47.4125051,52.3145928 C46.8860854,52.3138683 46.4594835,51.7847244 46.4588994,51.1317693 L46.4588994,12.6055188 C46.4594843,11.9525642 46.8860857,11.4234208 47.4125051,11.4226953 L95.7739353,11.4226953 C96.3003547,11.4234208 96.7269561,11.9525642 96.7275409,12.6055188 L96.7275409,51.1317693 Z" id="Shape" fill="#303030"></path>
            <path d="M64.5724402,30.4830508 L51.8173903,30.4830508 C50.7486756,30.4821317 49.8826286,29.8566533 49.8813559,29.0848038 L49.8813559,19.8728233 C49.8826286,19.1009738 50.7486756,18.4754954 51.8173903,18.4745763 L64.5724402,18.4745763 C65.6411554,18.4754945 66.5072032,19.1009735 66.5084746,19.8728233 L66.5084746,29.0848038 C66.5072032,29.8566537 65.6411554,30.4821326 64.5724402,30.4830508 L64.5724402,30.4830508 Z" id="Path" fill="#009681"></path>
            <path d="M92.3101612,39.720339 L50.7312392,39.720339 C50.2618616,39.720339 49.8813559,39.3067715 49.8813559,38.7966102 C49.8813559,38.2864488 50.2618616,37.8728814 50.7312392,37.8728814 L92.3101612,37.8728814 C92.7795387,37.8728814 93.1600445,38.2864488 93.1600445,38.7966102 C93.1600445,39.3067715 92.7795387,39.720339 92.3101612,39.720339 Z" id="Path" fill="#D7D7D7"></path>
            <path d="M92.3101608,35.1016949 L50.7312395,35.1016949 C50.2618618,35.1016949 49.8813559,34.6881274 49.8813559,34.1779661 C49.8813559,33.6678048 50.2618618,33.2542373 50.7312395,33.2542373 L92.3101608,33.2542373 C92.7795386,33.2542373 93.1600445,33.6678048 93.1600445,34.1779661 C93.1600445,34.6881274 92.7795386,35.1016949 92.3101608,35.1016949 Z" id="Path" fill="#D7D7D7"></path>
            <path d="M79.2636299,26.7881356 L71.3041667,26.7881356 C70.6962244,26.7881356 70.2033898,26.3745681 70.2033898,25.8644068 C70.2033898,25.3542454 70.6962244,24.940678 71.3041667,24.940678 L79.2636299,24.940678 C79.8715722,24.940678 80.3644068,25.3542454 80.3644068,25.8644068 C80.3644068,26.3745681 79.8715722,26.7881356 79.2636299,26.7881356 L79.2636299,26.7881356 Z" id="Path" fill="#D7D7D7"></path>
            <path d="M88.3166509,22.1694915 L70.5936019,22.1694915 C70.281724,22.1694915 70.0288969,21.755924 70.0288969,21.2457627 C70.0288969,20.7356014 70.281724,20.3220339 70.5936019,20.3220339 L88.3166509,20.3220339 C88.6285289,20.3220339 88.8813559,20.7356014 88.8813559,21.2457627 C88.8813559,21.755924 88.6285289,22.1694915 88.3166509,22.1694915 L88.3166509,22.1694915 Z" id="Path" fill="#D7D7D7"></path>
            <path d="M76.509511,44.3389831 L50.9650652,44.3389831 C50.3665491,44.3389831 49.8813559,43.9254156 49.8813559,43.4152542 C49.8813559,42.9050929 50.3665491,42.4915254 50.9650652,42.4915254 L76.509511,42.4915254 C77.1080272,42.4915254 77.5932203,42.9050929 77.5932203,43.4152542 C77.5932203,43.9254156 77.1080272,44.3389831 76.509511,44.3389831 L76.509511,44.3389831 Z" id="Path" fill="#D7D7D7"></path>
        </g>
        <g id="Group-Copy" transform="translate(25.000000, 511.000000)" fill-rule="nonzero">
            <path d="M19.7126873,50.4129356 C20.2362073,50.0615151 20.5738734,49.5010815 20.634826,48.8824369 C20.6957786,48.2637923 20.4737565,47.6504857 20.0285016,47.2075462 L20.8604651,29.0232558 L16.6248677,29.4887816 L16.8709416,47.2755853 C16.1446536,48.0748908 16.1436873,49.2797913 16.8686922,50.0802128 C17.5936971,50.8806343 18.8155104,51.0235759 19.7126873,50.4129356 L19.7126873,50.4129356 Z" id="Path" fill="#FFB8B8"></path>
            <polygon id="Path" fill="#FFB8B8" points="28.1162791 80.2861789 30.3970372 80.7209302 32.6511628 71.3860691 29.6628503 70.744186"></polygon>
            <path d="M26.9674018,80.5166358 L34.3599275,80.5166358 L34.3599275,83.3728376 L29.8236017,83.3728376 C29.0660904,83.3728376 28.3396048,83.0719174 27.8039634,82.5362761 C27.268322,82.0006347 26.9674018,81.2741491 26.9674018,80.5166358 L26.9674018,80.5166358 L26.9674018,80.5166358 Z" id="Path" fill="#303030" transform="translate(30.663665, 81.944737) rotate(-170.029220) translate(-30.663665, -81.944737) "></path>
            <polygon id="Path" fill="#FFB8B8" points="20.8609664 81.627907 23.9336797 81.6277152 25.3953488 72.5581395 20.8604651 72.5583313"></polygon>
            <path d="M20.787883,81.1348841 L28.1804087,81.1348841 L28.1804087,83.9910859 L23.6440829,83.9910859 C22.0666472,83.9910859 20.787883,82.7123217 20.787883,81.1348841 L20.787883,81.1348841 L20.787883,81.1348841 Z" id="Path" fill="#303030" transform="translate(24.484146, 82.562985) rotate(179.997380) translate(-24.484146, -82.562985) "></path>
            <path d="M30.5406838,79.3927657 C30.5061604,79.3928127 30.4716659,79.3906449 30.4373888,79.3862741 L27.8339044,79.1588282 C27.5943565,79.1289114 27.3768526,78.9959861 27.2321792,78.7910901 C27.0875058,78.586194 27.028328,78.3272644 27.0684637,78.0747605 L29.4725245,63.7697668 L27.8480946,54.6762185 C27.8207026,54.5234589 27.6914382,54.4155099 27.5451482,54.4232272 C27.3988581,54.4309445 27.2803103,54.5519665 27.2673173,54.7068566 L25.2365363,78.9621371 C25.1901674,79.468073 24.774466,79.8439711 24.2966117,79.8120642 L21.8438172,79.7150796 C21.3989758,79.6816367 21.0476622,79.3008844 21.0253434,78.828021 L20.8604651,49.7572437 L33.5767922,48.0697674 L34.4651163,62.6351841 L34.4615818,62.6506037 L31.3960899,78.6783799 C31.2999848,79.0972652 30.9467733,79.3922471 30.5406838,79.3927657 L30.5406838,79.3927657 Z" id="Path" fill="#303030"></path>
            <circle id="Oval" fill="#FFB8B8" cx="24.9418605" cy="13.1511628" r="4.98837209"></circle>
            <path d="M30.0824434,51.6976744 C29.350591,51.7019603 28.6327969,51.4975428 28.0139703,51.1085346 C25.7472713,49.6981398 23.1727149,50.2586825 21.8397773,50.7183731 C21.5718141,50.811791 21.2756627,50.7781971 21.035677,50.6271603 C20.7984328,50.4788795 20.6423235,50.2307317 20.6118817,49.9535049 L18.1879685,28.4015797 C17.7817774,24.7906079 19.9666475,21.3956152 23.3830426,20.3290784 L23.3830426,20.3290784 C23.511393,20.2889938 23.641912,20.250988 23.7745999,20.215061 C25.9267475,19.6341382 28.2268039,20.0315574 30.0564639,21.3004837 C31.9201653,22.5833822 33.117703,24.6219266 33.3271028,26.868027 L35.367676,48.5643992 C35.3958497,48.8491637 35.2881205,49.1305797 35.0767216,49.3244459 C34.3614136,49.9832327 32.2852701,51.6976744 30.0824434,51.6976744 Z" id="Path" fill="#D8232A"></path>
            <path d="M22.434897,33.5516006 L17.2461648,32.9487009 C16.9474283,32.9139853 16.6777857,32.7435755 16.5075008,32.4818772 C16.3372158,32.2201788 16.2831552,31.893113 16.3594061,31.585907 L17.6801287,26.2663355 C17.8619847,24.6054225 19.2813602,23.4132176 20.8535463,23.6008224 C22.4257323,23.7884272 23.5577984,25.2850889 23.3846019,26.9470353 L23.5806677,32.4249614 C23.5919339,32.7423367 23.4719186,33.0491763 23.2518956,33.265524 C23.0318725,33.4818717 22.7336348,33.5862985 22.434897,33.551593 L22.434897,33.5516006 Z" id="Path" fill="#D8232A"></path>
            <path d="M34.7505233,49.3515122 C35.1574859,48.9434513 35.3848869,48.350994 35.3715365,47.7335607 C35.3581861,47.1161275 35.1054557,46.5371435 34.6813509,46.1524038 L33.4752277,28.1162791 L29.9302326,29.0253782 L32.0111489,46.5897987 C31.4793441,47.4634711 31.6051878,48.6521992 32.3040735,49.3567852 C33.0029592,50.0613712 34.0539812,50.0591075 34.7505233,49.3515161 L34.7505233,49.3515122 Z" id="Path" fill="#FFB8B8"></path>
            <path d="M28.4457471,32.3584372 C28.2256303,32.142185 28.1056102,31.8353065 28.1170252,31.5179304 L28.3130906,26.0400371 C28.1398945,24.3781013 29.2719578,22.8814491 30.8441399,22.6938455 C32.416322,22.5062419 33.835694,23.6984392 34.0175496,25.3593417 L35.3382689,30.6788794 C35.4145189,30.9860837 35.3604582,31.3131472 35.1901739,31.574844 C35.0198895,31.8365408 34.750248,32.00695 34.4515124,32.0416666 L29.2627931,32.6445624 C28.9640145,32.6794363 28.6656903,32.5749647 28.4457471,32.3584372 L28.4457471,32.3584372 Z" id="Path" fill="#D8232A"></path>
            <path d="M25.021965,19.0465116 C24.9327022,19.0465116 24.8437481,19.0361193 24.7568628,19.015832 L24.731357,19.0096969 C20.3162592,18.3401024 19.3405578,15.8050228 19.1263689,14.7462997 C18.9046928,13.6501681 19.1571168,12.5921361 19.7275049,12.1812357 C19.4165291,11.2078205 19.4664447,10.3447561 19.8762029,9.61488472 C20.5908461,8.3420023 22.1417791,7.91160412 22.3497772,7.85895608 C23.588387,6.95313244 25.070335,7.55780667 25.3399782,7.68042375 C27.7358842,6.80171661 28.6516374,7.53316286 28.8172581,7.69645571 C29.8882497,7.88716097 30.5410474,8.29726889 30.7577818,8.91569898 C31.1648514,10.0772556 29.8775179,11.5221319 29.8225114,11.5830939 L29.7939593,11.6146632 L27.8761463,11.7052164 C27.5081203,11.722621 27.1648323,11.894027 26.9316441,12.1768125 C26.698456,12.4595981 26.5972751,12.8271964 26.6532611,13.1882005 L26.6532611,13.1882005 C26.7051683,13.4185267 26.7707384,13.6456163 26.8496297,13.8682857 C27.1771664,14.8829706 27.4225633,15.7498007 27.1060468,16.0793537 C26.9597248,16.2094801 26.7512703,16.2453015 26.5693038,16.1715891 C26.2694605,16.0922198 26.0658542,16.1088456 25.9644241,16.2211706 C25.8069408,16.3953473 25.8550101,16.8362342 26.0997957,17.4626823 C26.2563283,17.8664035 26.1739606,18.3228861 25.8859564,18.6477821 C25.670638,18.8995491 25.3549249,19.0452498 25.021965,19.0465116 L25.021965,19.0465116 Z" id="Path" fill="#303030"></path>
            <path d="M68.3684921,49.8837209 L45.0036009,49.8837209 C43.1914776,49.8816788 41.7229702,48.4116128 41.7209302,46.5975663 L41.7209302,11.4489453 C41.7229692,9.63489836 43.1914772,8.16483179 45.0036009,8.1627907 L68.3684921,8.1627907 C70.1806158,8.16483179 71.6491239,9.63489836 71.6511628,11.4489453 L71.6511628,46.5975663 C71.6491228,48.4116128 70.1806154,49.8816788 68.3684921,49.8837209 Z M45.0036009,8.54939712 C43.4046723,8.55120809 42.1089358,9.8483198 42.1071268,11.4489453 L42.1071268,46.5975663 C42.1089358,48.1981918 43.4046723,49.4953035 45.0036009,49.4971145 L68.3684921,49.4971145 C69.9674207,49.4953035 71.2631572,48.1981918 71.2649662,46.5975663 L71.2649662,11.4489453 C71.2631572,9.8483198 69.9674207,8.55120809 68.3684921,8.54939712 L45.0036009,8.54939712 Z" id="Shape" fill="#3F3D56"></path>
            <path d="M65.4370251,25.3953488 L48.8420447,25.3953488 C47.9150475,25.3942647 47.1638261,24.6076987 47.1627907,23.6370869 L47.1627907,15.3629131 C47.1638261,14.3923013 47.9150475,13.6057353 48.8420447,13.6046512 L65.4370251,13.6046512 C66.3640087,13.6057694 67.1152111,14.3923154 67.1162791,15.3629131 L67.1162791,23.6370869 C67.1152111,24.6076846 66.3640087,25.3942306 65.4370251,25.3953488 Z" id="Path" fill="#009681"></path>
            <path d="M63.7357294,32.6511628 L49.6363636,32.6511628 C48.7711564,32.6511628 48.0697674,31.8390282 48.0697674,30.8372093 C48.0697674,29.8353905 48.7711564,29.0232558 49.6363636,29.0232558 L63.7357294,29.0232558 C64.6009366,29.0232558 65.3023256,29.8353905 65.3023256,30.8372093 C65.3023256,31.8390282 64.6009366,32.6511628 63.7357294,32.6511628 Z" id="Path" fill="#CCCCCC"></path>
            <path d="M63.7357294,37.1860465 L49.6363636,37.1860465 C48.7711564,37.1860465 48.0697674,36.3739119 48.0697674,35.372093 C48.0697674,34.3702742 48.7711564,33.5581395 49.6363636,33.5581395 L63.7357294,33.5581395 C64.6009366,33.5581395 65.3023256,34.3702742 65.3023256,35.372093 C65.3023256,36.3739119 64.6009366,37.1860465 63.7357294,37.1860465 Z" id="Path" fill="#CCCCCC"></path>
            <path d="M63.7357294,43.5348837 L49.6363636,43.5348837 C48.7711564,43.5348837 48.0697674,42.7227491 48.0697674,41.7209302 C48.0697674,40.7191114 48.7711564,39.9069767 49.6363636,39.9069767 L63.7357294,39.9069767 C64.6009366,39.9069767 65.3023256,40.7191114 65.3023256,41.7209302 C65.3023256,42.7227491 64.6009366,43.5348837 63.7357294,43.5348837 Z" id="Path" fill="#CCCCCC"></path>
            <circle id="Oval" fill="#009681" cx="70.744186" cy="7.25581395" r="7.25581395"></circle>
            <path d="M70.1394498,10.1581395 C69.9512518,10.15846 69.7680425,10.102933 69.6174596,9.99993187 L69.6081237,9.993534 L67.6423364,8.62025834 C67.3934004,8.44750251 67.2647116,8.16647683 67.3049462,7.88347869 C67.3451809,7.60048054 67.5481962,7.35871635 67.8372021,7.24963293 C68.126208,7.1405495 68.4570808,7.18080102 68.7046686,7.35516244 L69.9779579,8.24600615 L72.9869437,4.66548845 C73.1278801,4.49776765 73.3360683,4.38800338 73.5657052,4.36034467 C73.795342,4.33268596 74.0276151,4.38939868 74.2114225,4.51800559 L74.1927144,4.54118128 L74.2119098,4.51834075 C74.5941689,4.78640602 74.6664776,5.28621402 74.3735472,5.63560204 L70.8342791,9.84713626 C70.6683642,10.0438501 70.4114933,10.1588235 70.1394498,10.1581395 Z" id="Path" fill="#FFFFFF"></path>
            <path d="M74.17791,84.3488372 L0.194183011,84.3488372 C0.0869386951,84.3488372 0,84.1458035 0,83.8953488 C0,83.6448941 0.0869386951,83.4418605 0.194183011,83.4418605 L74.17791,83.4418605 C74.2851543,83.4418605 74.372093,83.6448941 74.372093,83.8953488 C74.372093,84.1458035 74.2851543,84.3488372 74.17791,84.3488372 Z" id="Path" fill="#3F3D56"></path>
        </g>
        <path d="M62.8409045,688.198869 C63.1060636,687.93371 63.5359715,687.93371 63.8011307,688.198869 C64.0662898,688.464028 64.0662898,688.893936 63.8011307,689.159095 L63.8011307,689.159095 L59.961,693 L63.8011307,696.840905 C64.0662898,697.106064 64.0662898,697.535972 63.8011307,697.801131 C63.5359715,698.06629 63.1060636,698.06629 62.8409045,697.801131 L59,693.961 L55.1590955,697.801131 C54.9204523,698.039774 54.5483626,698.063638 54.28303,697.872724 L54.1988693,697.801131 C53.9337102,697.535972 53.9337102,697.106064 54.1988693,696.840905 L54.1988693,696.840905 L58.039,693 L54.1988693,689.159095 C53.9337102,688.893936 53.9337102,688.464028 54.1988693,688.198869 C54.4640285,687.93371 54.8939364,687.93371 55.1590955,688.198869 L59,692.039 Z" id="Combined-Shape-Copy-5" stroke="#D8232A" stroke-width="0.5" fill="#D8232A"></path>
        <path d="M53.1310137,640.116295 C52.6623846,639.647666 52.6623846,638.887868 53.1310137,638.419239 C53.5996429,637.95061 54.3594408,637.95061 54.82807,638.419239 L57.2795419,640.870566 L63.2426407,634.907275 C63.6982524,634.451663 64.4369448,634.451663 64.8925565,634.907275 C65.3481682,635.362887 65.3481682,636.101579 64.8925565,636.557191 L58.057191,643.392557 C57.6015793,643.848168 56.8628868,643.848168 56.4072751,643.392557 L53.1310137,640.116295 Z" id="Combined-Shape-Copy-2" fill="#009681"></path>
        <g id="Group-2" transform="translate(50.000000, 752.000000)">
            <rect id="Combined-Shape-Copy-2" fill="#303030" x="0" y="0" width="18" height="18" rx="9"></rect>
            <path d="M12.863447,4.76376087 C13.2148321,4.41220233 13.7846806,4.41206179 14.1362391,4.76344696 C14.4607547,5.0878025 14.4858372,5.59830428 14.2114019,5.95143406 L14.136553,6.03623913 L7.83655304,12.3393474 C7.51200897,12.6640516 7.00114889,12.688949 6.64803176,12.4140961 L6.5632379,12.3391382 L3.8632379,9.6360299 C3.51196829,9.2843559 3.51229611,8.71450751 3.8639701,8.3632379 C4.18859226,8.03898903 4.69911448,8.01432613 5.05201858,8.2890516 L5.1367621,8.3639701 L7.2,10.4292 L12.863447,4.76376087 Z" id="Path-3-Copy" fill="#FFFFFF" fill-rule="nonzero"></path>
        </g>
        <circle id="Oval-Copy" stroke="#E8E8E8" fill="#F5F5F5" cx="59" cy="810" r="11.5"></circle>
        <g id="+-copy" transform="translate(53.680000, 804.512000)" fill="#303030" fill-rule="nonzero">
            <polygon id="Path" points="10.44 5.808 5.976 5.808 5.976 10.176 4.464 10.176 4.464 5.808 0 5.808 0 4.392 4.464 4.392 4.464 0 5.976 0 5.976 4.392 10.44 4.392"></polygon>
        </g>
        <g id="undraw_house_searching_re_stk8-(3)-copy" transform="translate(25.000000, 876.000000)" fill-rule="nonzero">
            <circle id="Oval" fill="#909090" cx="26.0079365" cy="38.5634921" r="5.38095238"></circle>
            <polygon id="Path" fill="#303030" points="26.4564453 38.5634921 26.4798993 38.5634921 26.9047619 54.7063492 26.0079365 54.7063492"></polygon>
            <circle id="Oval" fill="#909090" cx="17.4880952" cy="22.8690476" r="11.2103175"></circle>
            <polygon id="Path" fill="#303030" points="17.9364126 23.3174603 17.9837093 23.3174603 18.8333333 54.7063492 17.0396825 54.7063492"></polygon>
            <rect id="Rectangle" fill="#F0F0F0" x="41.2539683" y="38.5634921" width="51.1190476" height="16.1428571"></rect>
            <rect id="Rectangle" fill="#CACACA" x="63.6746032" y="43.047619" width="6.27777778" height="11.6587302"></rect>
            <rect id="Rectangle" fill="#F0F0F0" x="44.8412698" y="21.5238095" width="45.7380952" height="14.3492063"></rect>
            <path d="M94.6057476,22.4206349 L39.918059,22.4206349 C39.7312778,22.4206349 39.5632336,22.3089592 39.4934647,22.1384687 C39.4236958,21.9679782 39.4661995,21.7728761 39.6008579,21.6455077 L54.547048,7.50886569 L54.547048,1.35125029 C54.5473324,1.10260958 54.7521002,0.901116066 55.0047819,0.90083555 L57.9546293,0.90083555 C58.2073147,0.901107297 58.4120877,1.10260594 58.4123632,1.35125029 L58.4123632,3.85296591 L59.5412791,2.78518679 C63.3735566,-0.839579189 69.3996587,-0.938184141 73.3522947,2.5591975 L94.9117989,21.6352415 C95.0527527,21.7599717 95.1009976,21.9572858 95.0331273,22.1314551 C94.9652569,22.3056244 94.7953139,22.4206349 94.6057476,22.4206349 L94.6057476,22.4206349 Z" id="Path" fill="#909090"></path>
            <path d="M56.5000006,24.2142857 L56.5000006,24.2142857 C57.2135591,24.2142857 57.8978921,24.535822 58.4024541,25.1081603 C58.9070162,25.6804987 59.1904762,26.456756 59.1904762,27.2661646 L59.1904762,31.3888889 L53.8095238,31.3888889 L53.8095238,27.2661646 C53.8095238,26.4567558 54.092984,25.6804982 54.5975463,25.1081599 C55.1021086,24.5358215 55.7864419,24.2142857 56.5000006,24.2142857 Z" id="Path" fill="#FFFFFF"></path>
            <path d="M67.2619042,25.1111111 L67.2619042,25.1111111 C68.7478135,25.1111111 69.952381,26.4774838 69.952381,28.16299 L69.952381,32.2857143 L64.5714286,32.2857143 L64.5714286,28.16299 C64.5714286,26.4774843 65.7759953,25.1111111 67.2619042,25.1111111 Z" id="Path" fill="#FFFFFF"></path>
            <path d="M78.0238089,25.1111111 L78.0238089,25.1111111 C79.5097182,25.1111111 80.7142857,26.4774838 80.7142857,28.16299 L80.7142857,32.2857143 L75.3333333,32.2857143 L75.3333333,28.16299 C75.3333333,26.4774843 76.5379001,25.1111111 78.0238089,25.1111111 Z" id="Path" fill="#FFFFFF"></path>
            <path d="M82.5079359,42.1507937 L82.5079359,42.1507937 C83.9938452,42.1507937 85.1984127,43.5171664 85.1984127,45.2026725 L85.1984127,49.3253968 L79.8174603,49.3253968 L79.8174603,45.2026725 C79.8174603,43.5171669 81.0220271,42.1507937 82.5079359,42.1507937 Z" id="Path" fill="#FFFFFF"></path>
            <path d="M53.8095255,42.1507937 L53.8095255,42.1507937 C55.2954336,42.1507937 56.5,43.5171664 56.5,45.2026725 L56.5,49.3253968 L51.1190476,49.3253968 L51.1190476,45.2026725 C51.1190476,44.3932632 51.402508,43.6170053 51.9070706,43.0446669 C52.4116332,42.4723285 53.0959668,42.1507937 53.8095255,42.1507937 Z" id="Path" fill="#FFFFFF"></path>
            <path d="M100.204439,38.4030739 L90.6398472,34.1142981 C90.5884836,34.091264 90.5329358,34.0793651 90.4767676,34.0793651 L44.8935146,34.0793651 C44.841478,34.0793651 44.789933,34.0895687 44.7417284,34.1094305 L34.3306729,38.39821 C34.1520795,38.4717864 34.0499051,38.663222 34.0868925,38.854961 C34.1238799,39.0467001 34.2896716,39.1850504 34.4824591,39.1850546 L37.1836259,39.1850546 L37.1836259,53.2767631 L36.8813316,53.2767631 L36.8813316,54.7063492 L97.6425363,54.7063492 L97.6425363,53.2767556 L97.1387124,53.2767556 L97.1387124,39.185047 L100.041357,39.185047 C100.231835,39.1850426 100.396307,39.0499097 100.435694,38.8610529 C100.47508,38.6721961 100.378627,38.4811802 100.204439,38.4030739 L100.204439,38.4030739 Z M96.3325941,53.2767556 L37.9897455,53.2767556 L37.9897455,39.185047 L96.3325941,39.185047 L96.3325941,53.2767556 Z" id="Shape" fill="#909090"></path>
            <rect id="Rectangle" fill="#CACACA" x="52.9126984" y="30.4920635" width="7.17460317" height="1.79365079"></rect>
            <rect id="Rectangle" fill="#CACACA" x="63.6746032" y="30.4920635" width="7.17460317" height="1.79365079"></rect>
            <rect id="Rectangle" fill="#CACACA" x="75.3333333" y="30.4920635" width="7.17460317" height="1.79365079"></rect>
            <rect id="Rectangle" fill="#CACACA" x="78.9206349" y="48.4285714" width="7.17460317" height="1.79365079"></rect>
            <rect id="Rectangle" fill="#CACACA" x="50.2222222" y="48.4285714" width="7.17460317" height="1.79365079"></rect>
            <path d="M112.875688,55.5583333 L0.124312431,55.5583333 C0.0556565713,55.5583333 0,55.3575721 0,55.1099206 C0,54.8622691 0.0556565713,54.6615079 0.124312431,54.6615079 L112.875688,54.6615079 C112.944343,54.6615079 113,54.8622691 113,55.1099206 C113,55.3575721 112.944343,55.5583333 112.875688,55.5583333 Z" id="Path" fill="#303030"></path>
            <path d="M84.3015873,20.7736128 C84.3015873,20.8563597 84.3003423,20.9403629 84.2990973,21.0230994 C84.2978523,21.1226324 84.2953622,21.2208728 84.2916197,21.3203954 C84.2879108,21.4070085 84.2841422,21.4923264 84.279187,21.5776301 C84.2642331,21.8633143 84.2405854,22.1477034 84.2082137,22.4333709 C84.2007362,22.5057507 84.1920423,22.5768535 84.1820685,22.6492308 C84.1745909,22.7048219 84.1671133,22.7617057 84.1584194,22.8185739 C84.1496968,22.8819131 84.140973,22.9452523 84.131003,23.0085915 C84.1110944,23.1430308 84.0886841,23.277465 84.0637722,23.411894 C84.0513408,23.4791111 84.038908,23.5463282 84.0252004,23.6135362 C83.9990551,23.7466778 83.9703962,23.881121 83.940547,24.0142664 C83.9380569,24.0246075 83.9355669,24.0362309 83.9330707,24.0465823 C83.9181155,24.1125068 83.9031903,24.1771386 83.8869902,24.2430631 C83.8820101,24.2624397 83.8782963,24.2805495 83.8720662,24.2999313 C83.8608499,24.3490515 83.8483873,24.3981717 83.8359608,24.4472919 C83.8185431,24.5158016 83.8011004,24.5830083 83.7824327,24.6515219 C83.7525237,24.7575272 83.722672,24.8622385 83.6915467,24.9682269 C83.6876571,24.97924 83.6843295,24.9904585 83.6815778,25.0018354 C83.6218172,25.202185 83.5583215,25.3999674 83.4886007,25.5964482 C83.4524953,25.6998591 83.4139173,25.8045626 83.3753144,25.9079619 C83.336719,26.0113728 83.2968636,26.1147967 83.255793,26.2169201 C83.2159451,26.3164531 83.1748497,26.4159758 83.1337817,26.5142174 C83.1238129,26.5374849 83.1138428,26.5607523 83.1026563,26.5840198 C83.0590696,26.6861277 83.0142354,26.7856633 82.9681861,26.8852041 C82.9669411,26.8864967 82.9669411,26.889082 82.9656961,26.8903746 C82.9295907,26.9705181 82.8909828,27.0506615 82.8523799,27.1295123 C82.8523506,27.1319097 82.851463,27.13421 82.8498899,27.1359652 C82.8125644,27.2135363 82.7739615,27.2910919 82.7341123,27.3673471 L82.6706166,27.4927328 L82.663139,27.506966 C82.5834718,27.660782 82.5013121,27.8133208 82.4141363,27.9645593 C82.3954735,27.9981678 82.3768107,28.0317635 82.3581467,28.0640794 C82.3394541,28.0976879 82.3195438,28.1312965 82.2996049,28.1636124 C82.2871722,28.1868859 82.2734738,28.2101533 82.2585095,28.2334147 C82.2323642,28.2773644 82.2062289,28.3226066 82.1788423,28.3665446 C82.1738623,28.3756022 82.167626,28.3846597 82.1626708,28.3937004 C82.1153454,28.4699659 82.0680498,28.5449453 82.0207231,28.6212044 C81.9622074,28.7129815 81.9024467,28.8034661 81.8414485,28.8939506 L80.4893497,31.1405526 L80.4308341,31.0901398 L80.4146638,31.0746282 L80.4134188,31.0746282 L80.3598608,31.0280933 L80.2129579,30.8988296 C80.1681548,30.9440719 80.1245619,30.9893142 80.0797327,31.0332638 C80.0623162,31.0513465 80.0436534,31.068165 80.0262058,31.0862503 C80.0125281,31.0991896 80.0000605,31.112103 79.9863566,31.1250294 C77.6488498,33.4950643 74.5394622,34.8674939 71.2737493,34.9706226 L71.2700404,34.9706226 C68.79786,35.0411024 66.3506677,34.4414329 64.1697261,33.230734 C64.1211531,33.2048722 64.07386,33.1790092 64.0265308,33.1492811 C63.7426938,32.9889942 63.4650582,32.8196692 63.1923715,32.6386897 C63.1911265,32.6373971 63.1898815,32.6373971 63.1886364,32.6361045 C62.8723979,32.403423 62.563637,32.1552369 62.2623536,31.8915459 C58.9856246,29.0239269 57.1918045,24.7283115 57.4155231,20.284964 C57.4192582,20.1983573 57.4242457,20.1130498 57.4304471,20.0264367 C57.4503864,19.7136187 57.4810968,19.4020933 57.5225781,19.0918606 C57.5337945,19.005254 57.5462558,18.9186473 57.5586835,18.8333333 L84.1745909,18.8333333 C84.2268715,19.2288801 84.2629815,19.6265812 84.2829208,20.0264367 C84.295356,20.2759569 84.3015873,20.5241431 84.3015873,20.7736128 Z" id="Path" fill="#F0F0F0"></path>
            <path d="M84.1930465,18.5855636 C83.2007944,12.0261351 77.5317113,7.17460317 70.859179,7.17460317 C64.1866467,7.17460317 58.5175636,12.0261351 57.5253115,18.5855636 C57.5128546,18.6674089 57.500369,18.7504944 57.4891358,18.8335799 C57.4479903,19.1311994 57.4172202,19.430059 57.3968254,19.7301587 L84.3015873,19.7301587 C84.28161,19.3469736 84.2454297,18.9654418 84.1930465,18.5855636 Z" id="Path" fill="#D8232A"></path>
            <path d="M70.8492063,32.2857143 L63.6746032,32.2857143 L63.6746032,26.2059008 C63.8069851,23.4273994 66.0487514,23.2030326 68.1551795,23.3521478 C68.8696745,23.3520922 69.5549225,23.6527325 70.0601584,24.1879233 C70.5653942,24.7231141 70.8492063,25.4490093 70.8492063,26.2059008 L70.8492063,32.2857143 Z" id="Path" fill="#D8232A"></path>
            <path d="M60.0994064,18.6849293 C60.0943261,18.7158267 60.0879643,18.7467242 60.0828789,18.7776217 C60.0879592,18.7467242 60.094321,18.7158267 60.1006777,18.6849293 L60.0994064,18.6849293 Z M59.9419173,19.8256646 C59.9381071,19.8726287 59.9342893,19.9195929 59.9317466,19.9665571 C59.9342867,19.9195929 59.9381008,19.8726287 59.9431887,19.8256646 C59.942977,19.8169949 59.9434015,19.8083216 59.9444587,19.7997107 C59.9431899,19.808362 59.9431899,19.8170133 59.9419186,19.8256646 L59.9419173,19.8256646 Z M60.0994051,18.6849293 C60.0943248,18.7158267 60.087963,18.7467242 60.0828777,18.7776217 C60.087958,18.7467242 60.0943197,18.7158267 60.1006765,18.6849293 L60.0994051,18.6849293 Z M59.9317466,19.9665571 C59.9342867,19.9195929 59.9381008,19.8726287 59.9431887,19.8256646 C59.942977,19.8169949 59.9434015,19.8083216 59.9444587,19.7997107 C59.9431887,19.808362 59.9431887,19.8170133 59.9419186,19.8256646 C59.9381046,19.8726287 59.9342905,19.9195929 59.9317478,19.9665571 L59.9317466,19.9665571 Z M99.1693792,42.7021657 C99.1447032,42.6766896 99.1184089,42.6527452 99.0906512,42.6304737 L99.0893811,42.6292378 L92.799979,37.4644246 L92.6374096,37.3309474 L92.0188993,36.8229791 L91.8639237,36.6956814 L90.9824929,35.9714566 L90.7411917,35.7737003 L90.2420606,35.363394 L89.9867759,35.1532812 L87.5787173,33.1770778 L86.1981377,32.0437678 L86.012707,31.8917521 L81.9446628,28.5511156 C82.0068964,28.4646026 82.0678599,28.3780896 82.1275457,28.2903408 C82.1758237,28.2174227 82.2240712,28.1457405 82.2723505,28.0728224 C82.2774054,28.0641786 82.2837621,28.0555198 82.2888475,28.0468587 C82.3167891,28.0048381 82.3434518,27.961589 82.3701182,27.9195721 C82.3853743,27.8973202 82.3993485,27.875074 82.4120408,27.8528336 C82.432381,27.8219361 82.452692,27.7898027 82.4717609,27.7576693 C82.4908006,27.7267718 82.509839,27.694652 82.5288774,27.6625174 C82.6178079,27.5179109 82.7016213,27.3720686 82.782892,27.2250089 L82.79052,27.2114004 L82.8552938,27.0915182 C82.895945,27.0186001 82.9353249,26.9444535 82.9734017,26.8702922 C82.9750065,26.868614 82.975912,26.8664147 82.9759418,26.8641225 C83.0153217,26.7887327 83.0547016,26.7121069 83.0915388,26.6354811 C83.0928089,26.6342452 83.0928089,26.6317734 83.094079,26.6305375 C83.1410551,26.5353733 83.1867943,26.440209 83.2312557,26.3425729 C83.2426673,26.3203267 83.2528381,26.2980805 83.2630076,26.2758343 C83.3048997,26.181906 83.3468222,26.0867528 83.3874747,25.9915861 C83.4293668,25.89395 83.4700181,25.7950669 83.5094018,25.6961888 C83.5487816,25.5973267 83.588131,25.4972263 83.6249682,25.3983481 C83.6948282,25.2092555 83.7604486,25.0197509 83.8218296,24.8298343 C83.8246366,24.8189567 83.8280312,24.8082307 83.8319991,24.7977009 C83.8637509,24.6963646 83.8942009,24.5962493 83.9247144,24.4948969 C83.9437541,24.4293942 83.9615465,24.3651361 83.9793199,24.2996309 C83.9920016,24.2526667 84.0047214,24.2057026 84.016152,24.1587384 C84.0225024,24.1402122 84.026291,24.1228973 84.0313764,24.1043662 C84.0479039,24.0413353 84.0631282,23.9795403 84.0783843,23.9165095 C84.0809245,23.9066124 84.0834646,23.8954992 84.0860111,23.885612 C84.1164611,23.7583143 84.1457046,23.6297721 84.1723685,23.5024707 C84.186352,23.4382163 84.19904,23.3739483 84.2117166,23.3096791 C84.2358721,23.1811554 84.2599959,23.052612 84.2803006,22.9240784 C84.2904713,22.8635193 84.2993707,22.8029602 84.3082689,22.7424012 C84.3171378,22.688029 84.3247658,22.633642 84.3323939,22.5804909 C84.3425634,22.5112879 84.3514323,22.443306 84.3590654,22.3741056 C84.3920873,22.1009718 84.4162124,21.8290738 84.4314672,21.5559252 C84.4365221,21.474367 84.4403666,21.3927939 84.4441502,21.3099812 C84.4479604,21.2148293 84.4505069,21.1208997 84.4517782,21.0257342 C84.4530483,20.9466366 84.4543184,20.866313 84.4543184,20.7871981 C84.4543184,20.5486782 84.4479617,20.3113768 84.4352787,20.0728482 C84.4149381,19.6909602 84.3781013,19.3107151 84.3247684,18.9321129 C83.3841624,12.2426045 77.5429688,7.23718842 70.6047319,7.17518501 C63.6664951,7.1131816 57.7318173,12.0133628 56.665116,18.684933 C56.652433,18.7665023 56.6397209,18.8493076 56.6282839,18.9321129 C56.5863918,19.2287288 56.5550633,19.5265806 56.5342984,19.8256683 C56.5279722,19.9084797 56.5228868,19.9900429 56.5190741,20.0728482 C56.2908525,24.3211669 58.120778,28.4282379 61.4634598,31.1699905 C61.7708074,31.4221189 62.085783,31.6594117 62.4083866,31.8818686 C62.4096567,31.8831045 62.4109268,31.8831045 62.4121968,31.8843404 C62.5201658,31.9585068 62.6281093,32.0314051 62.7373432,32.1030947 C62.9113267,32.2143256 63.0866133,32.3230848 63.2631395,32.4269004 C63.2771243,32.4343071 63.2911078,32.4429671 63.3050621,32.4503899 C63.4574708,32.5393746 63.6111687,32.6246406 63.7648425,32.7074508 L63.7660834,32.7074508 C64.3381804,33.0135124 64.9319728,33.2794959 65.5429449,33.5033788 C67.335588,34.1596821 69.2474171,34.4515876 71.1604783,34.3610857 L71.1642618,34.3610857 C73.3970904,34.2559833 75.571201,33.6299065 77.5032171,32.535662 C77.7839032,32.3774668 78.0607652,32.2081486 78.3313048,32.0277073 C78.3986186,31.9832149 78.4671797,31.9374742 78.5332261,31.8917583 C78.6145285,31.8361342 78.6957954,31.7780556 78.7771017,31.7199683 C78.7783718,31.7199683 78.7783718,31.7187324 78.7796418,31.7187324 C78.7856785,31.7138036 78.7920385,31.7092623 78.7986815,31.7051375 C78.8532858,31.6643429 78.9091614,31.6235681 78.9625209,31.5840193 C78.9765044,31.5741222 78.9904625,31.5642449 79.0044118,31.5531218 C79.0081205,31.5506098 79.0115315,31.5477054 79.0145825,31.5444619 C79.0463343,31.5222243 79.0768161,31.4974977 79.1085679,31.474007 C79.1403197,31.4505323 79.1708015,31.4258205 79.2025533,31.4011087 C79.2079359,31.3977994 79.2130376,31.3940761 79.2178094,31.3899744 C79.2533715,31.3615487 79.2889399,31.334359 79.3244753,31.3059419 C79.3613074,31.2775162 79.3968783,31.2478546 79.4311728,31.2194203 C79.4667349,31.1909946 79.5010332,31.1625689 79.5365991,31.1329073 C79.5670808,31.1081807 79.5988326,31.0822354 79.6293144,31.0550456 C79.6394534,31.0476228 79.6483528,31.038979 79.6585261,31.0303277 C79.66244,31.0266656 79.6666844,31.0233532 79.6712078,31.0204306 C79.7131303,30.9858254 79.7537816,30.9499756 79.7944315,30.9141432 C79.8046023,30.9054919 79.8134712,30.8968406 79.8236432,30.8881782 C79.8858768,30.833806 79.9481104,30.7794339 80.0090739,30.7225874 C80.0230269,30.7102161 80.0382856,30.6966236 80.052236,30.6842671 C80.0662208,30.6718958 80.0789343,30.6595491 80.0928873,30.6471901 C80.1106861,30.6299011 80.1297194,30.6138208 80.1474915,30.5965294 C80.1932281,30.5544977 80.2376934,30.5112449 80.2833982,30.4679958 L80.433258,30.5915858 L80.487894,30.6360782 L80.4891641,30.6360782 L80.5056598,30.650909 L80.5653532,30.699109 L81.4518642,31.4282898 L81.4709344,31.4443417 L81.4861588,31.4554759 L81.5864945,31.5382713 L81.7871763,31.7038929 L81.9878567,31.8682676 L82.0170684,31.8917571 L82.9505543,32.6580148 L83.0801018,32.7643022 L83.9805951,33.5033825 L88.6417634,37.3309635 L88.8043328,37.4644406 L95.1839101,42.702183 L96.819749,44.0456059 L97.428114,44.5448982 C97.6889024,44.7596515 98.0267375,44.8646924 98.3671755,44.8368746 C98.7076136,44.8090567 99.0227161,44.650663 99.2430485,44.3965964 C99.3344122,44.2922061 99.4069798,44.1735351 99.4576832,44.0456009 C99.6462053,43.5819711 99.5328224,43.0536313 99.1693792,42.7021657 L99.1693792,42.7021657 Z M62.3791813,14.0527776 C64.9795862,11.0541231 69.1183324,9.77476388 73.0203813,10.7633955 C76.9224302,11.7520272 79.8944953,14.8329971 80.661908,18.6849293 C80.678405,18.7677345 80.6936598,18.8493039 80.7076141,18.9321092 C80.7596757,19.2274892 80.7977893,19.5265769 80.8206671,19.8256646 C80.8269934,19.908476 80.8333501,19.9900392 80.8371641,20.0728445 C80.8485744,20.2582294 80.8536619,20.4448503 80.8536619,20.6302352 C80.854392,21.7547714 80.662964,22.8715999 80.2872072,23.9350307 L80.2872072,23.9362666 C79.8672887,25.1286283 79.2224953,26.2343101 78.3859077,27.1965857 C78.3681394,27.216349 78.3503457,27.2373704 78.3313035,27.2571448 C78.1636449,27.4499377 77.9871137,27.6353226 77.8054754,27.8120637 C77.8042346,27.8132996 77.8029353,27.8157714 77.8016919,27.8170073 C77.7394291,27.8775664 77.6759254,27.9393614 77.6124218,27.9962127 C77.4828743,28.1185668 77.3508096,28.2347327 77.2161755,28.3459723 C77.014222,28.5177624 76.8072043,28.6788413 76.5951224,28.829209 C76.5239907,28.8798698 76.4528603,28.9293243 76.3804572,28.9787529 C76.309356,29.0281889 76.2369542,29.0751531 76.1645448,29.1221172 C76.0197387,29.2160456 75.872428,29.3062663 75.7238294,29.3915434 C75.650155,29.4347813 75.5739684,29.476813 75.4990265,29.5176051 C75.4240807,29.5596059 75.3478954,29.5991634 75.2716834,29.6374874 C75.1954968,29.6770362 75.1192809,29.7153342 75.041823,29.7524174 C74.8881187,29.8278073 74.7331736,29.8982449 74.5756858,29.9637562 C74.4969565,29.9983614 74.4182074,30.0304948 74.3394383,30.0601564 C74.2899194,30.0799308 74.2416426,30.0997138 74.1921212,30.1170078 C74.1727564,30.1257143 74.1528139,30.1331488 74.1324278,30.1392614 C74.1057613,30.1503795 74.0790944,30.1602667 74.0524271,30.168923 C74.0437548,30.1727493 74.0348472,30.1760492 74.0257556,30.178804 C73.9711209,30.1998204 73.917788,30.2183614 73.8619162,30.2369024 C73.7818863,30.2653281 73.7018552,30.291282 73.6205845,30.3159999 C73.5393125,30.3419538 73.4592852,30.3666607 73.378012,30.388918 C73.2967095,30.4136447 73.2141725,30.4358822 73.132865,30.4568826 C73.0503229,30.4791362 72.969051,30.5001515 72.8864784,30.5186776 C72.798851,30.5409312 72.7112236,30.5607093 72.6222931,30.5792367 C72.5448364,30.5965566 72.4686142,30.6113701 72.3911626,30.6249798 C72.3187596,30.6397945 72.2451156,30.6521696 72.17271,30.6645286 C72.0711042,30.6818312 71.9694856,30.6978979 71.8666326,30.7114928 C71.8107265,30.7201527 71.7561222,30.7275594 71.7002454,30.7324932 C71.6761216,30.7362009 71.6532387,30.7386727 71.6303914,30.7411531 C71.5592596,30.7510502 71.4881279,30.7584557 71.4182676,30.7646278 C71.3992292,30.7658637 71.3814608,30.7683355 71.3636633,30.7695714 C71.2862053,30.7769942 71.2074443,30.7831799 71.1299584,30.7893458 C70.963603,30.8004689 70.7984871,30.8078843 70.6320999,30.811592 C70.5482865,30.8128279 70.46317,30.8140638 70.3793554,30.8140638 C70.2955407,30.8140638 70.2116968,30.8128279 70.1278809,30.8103561 C70.1278809,30.8103561 70.1278809,30.811592 70.1266108,30.8103561 C70.1253407,30.811592 70.1253407,30.811592 70.1240707,30.8103561 C70.1237387,30.8106927 70.12328,30.810883 70.1228006,30.810883 C70.1223212,30.810883 70.1218625,30.8106927 70.1215305,30.8103561 C70.1173989,30.8115932 70.1129805,30.8115932 70.1088488,30.8103561 C70.0491554,30.8103561 69.9894378,30.8078843 69.9310195,30.8041766 C69.8878561,30.8029407 69.8433921,30.8017048 69.7989319,30.7979971 C69.7392724,30.7955253 69.6795827,30.7918176 69.6198631,30.786874 C69.6008247,30.786874 69.5817609,30.7844145 69.5627161,30.7831774 C69.5537767,30.7829692 69.5448637,30.7821432 69.5360446,30.7807056 C69.4750811,30.775762 69.4128475,30.7708085 69.3518586,30.7646228 C69.3214086,30.7621634 69.2896568,30.7596904 69.2591432,30.755979 C69.1664279,30.7460918 69.0737126,30.7349625 68.9822762,30.722622 C68.8781213,30.7102507 68.7739982,30.6954211 68.6711083,30.6768789 C68.6228595,30.6706994 68.5758528,30.6620481 68.5288449,30.6534042 C68.4666426,30.6435072 68.4044204,30.6323841 68.3421784,30.620035 C68.2773729,30.607676 68.2126309,30.595317 68.1478229,30.5804775 C68.0957614,30.5693544 68.0424284,30.55824 67.9903656,30.5458834 C67.96494,30.5409398 67.9395449,30.5347604 67.9154211,30.5285809 C67.7820571,30.4976834 67.6499644,30.4643141 67.5191431,30.4272284 C67.436601,30.4049909 67.3540336,30.3815162 67.2727565,30.3567896 C67.1609736,30.3234203 67.0504937,30.2875866 66.9400126,30.2492663 C66.8968199,30.2356714 66.8548974,30.2208406 66.8117035,30.2047739 C66.7685413,30.191179 66.7266187,30.1751123 66.6834553,30.1590456 C66.6440767,30.1454372 66.6046968,30.13062 66.5665882,30.1157768 C66.5030846,30.0923021 66.440851,30.0675903 66.3786174,30.0428785 C66.25034,29.9921868 66.1246028,29.9390518 65.9988656,29.8822116 C65.9277338,29.8488423 65.8566326,29.8167089 65.7867735,29.7833396 C65.5111769,29.6535644 65.2397979,29.5093761 64.9726363,29.3507747 C64.9065925,29.3124544 64.8405741,29.2716772 64.774529,29.2308925 C64.6919552,29.1814565 64.6119597,29.1295401 64.5319552,29.0776409 C64.4874912,29.0479793 64.4442973,29.0195536 64.4011034,28.9898921 C64.321104,28.9355051 64.2423443,28.8798797 64.1648876,28.8242704 C64.1242364,28.7958447 64.0835851,28.7661831 64.0442306,28.7365215 C63.9032386,28.6326948 63.7648146,28.5239468 63.6289167,28.4127158 C63.564143,28.3595722 63.4993693,28.3051926 63.4358656,28.2495845 C63.4091941,28.2273309 63.382501,28.2038414 63.3558345,28.1803667 C63.3253845,28.1531769 63.294871,28.1272317 63.2656593,28.0987973 L63.2631192,28.0963379 C63.2186857,28.0580176 63.174214,28.017223 63.1310316,27.9764445 C63.0637444,27.9146495 62.997698,27.8516187 62.9341944,27.787363 C62.8681506,27.7243321 62.8046469,27.6588295 62.7424133,27.5945553 C62.6789097,27.5302885 62.6179461,27.4647858 62.5582527,27.3980361 C62.4972892,27.332545 62.4375894,27.2658117 62.3791533,27.1978364 C62.3220001,27.1335697 62.2661308,27.0668237 62.2127662,27.0013173 C62.0832187,26.8455939 61.9596016,26.6869868 61.841915,26.5254959 C61.7873107,26.451342 61.7352479,26.3771781 61.6844259,26.3018055 C61.6298216,26.2251649 61.5777283,26.1473181 61.5282069,26.0694403 C61.4761441,25.9915935 61.4266011,25.9124811 61.3783459,25.8321575 C61.3771072,25.8294155 61.3753882,25.8269039 61.3732656,25.8247347 C61.2780101,25.6677755 61.1865649,25.509589 61.1014522,25.3489134 C61.0138247,25.1857812 60.9312721,25.0209946 60.8537943,24.8545535 C60.8144449,24.7717421 60.7763363,24.6877071 60.7407717,24.603677 C60.6670973,24.434344 60.5985083,24.2650406 60.5350046,24.0932345 C60.5032528,24.0104391 60.4740411,23.9276239 60.4448294,23.8435827 C60.4439021,23.8380304 60.4421926,23.8326289 60.4397492,23.8275309 C60.3813258,23.6569607 60.327998,23.4851867 60.28099,23.3121608 C60.2797199,23.309689 60.2797199,23.307227 60.2784499,23.3047528 C60.2543261,23.2194683 60.2314737,23.1341826 60.2111627,23.0476758 C60.1908224,22.9722859 60.1730605,22.896896 60.1565279,22.8202702 C60.1374895,22.7349858 60.1184499,22.6497161 60.1019237,22.5632093 C60.0930243,22.5187033 60.0841554,22.4742134 60.0765222,22.4297223 C60.0689018,22.3926453 60.0625387,22.3543324 60.056182,22.3172665 C60.0498558,22.2801895 60.0435003,22.2418631 60.0371436,22.2035576 C60.0244302,22.1281677 60.0129995,22.0527799 60.0028516,21.9773942 C59.9901382,21.8883983 59.9799992,21.7994172 59.9698297,21.7091978 C59.9583876,21.6016745 59.9482486,21.4941376 59.939348,21.3853921 C59.9329976,21.3124629 59.9291772,21.2383126 59.9253937,21.1641661 C59.9215492,21.0961916 59.9177656,21.0282171 59.9164955,20.9602426 C59.9152233,20.9566383 59.9152233,20.9527239 59.9164955,20.9491195 C59.9161496,20.9487965 59.9159541,20.9483502 59.9159541,20.9478836 C59.9159541,20.9474171 59.9161496,20.9469708 59.9164955,20.9466477 C59.9152255,20.9454118 59.9152255,20.9454118 59.9164955,20.9441759 C59.9161496,20.9438529 59.9159541,20.9434066 59.9159541,20.94294 C59.9159541,20.9424735 59.9161496,20.9420272 59.9164955,20.9417041 C59.9152255,20.9145143 59.9139554,20.887332 59.9139554,20.8601459 C59.9114152,20.7798124 59.9101452,20.6994789 59.9101452,20.6191455 C59.9101452,20.5462163 59.9114152,20.4745316 59.9126853,20.4016185 C59.9152255,20.3002747 59.9190289,20.198931 59.9240957,20.0975872 C59.9240957,20.075341 59.9266358,20.0543307 59.9279402,20.0320845 C59.929181,20.0098383 59.9304524,19.988828 59.9317237,19.9665818 C59.9342639,19.9196176 59.9380779,19.8726535 59.9431658,19.8256893 C59.9429542,19.8170196 59.9433786,19.8083463 59.9444359,19.7997354 C59.9482461,19.7465917 59.9533035,19.693448 59.9583889,19.6403043 C59.9685596,19.534017 59.9812718,19.4264937 59.995221,19.3202064 C60.0028491,19.2670627 60.0092058,19.213919 60.0181039,19.1607753 C60.0231842,19.1236983 60.0295155,19.0853854 60.0358723,19.0470725 C60.0409576,19.0087597 60.0473139,18.9704468 60.0549411,18.9321339 C60.0638101,18.881462 60.0727095,18.8295542 60.0828484,18.7776464 C60.0879287,18.7467489 60.0942905,18.7158515 60.1006473,18.684954 C60.124771,18.561364 60.1514375,18.4377741 60.1806466,18.3141841 C60.2098583,18.1893582 60.2429094,18.0657683 60.2784422,17.9421783 C60.3127342,17.8173525 60.3508453,17.6925266 60.3914965,17.5677008 C60.4105349,17.5046699 60.4308752,17.4428749 60.4537301,17.3810799 C60.4956209,17.2562541 60.5400862,17.1326641 60.5896356,17.01031 C60.6124893,16.949751 60.636613,16.887956 60.6632795,16.8273969 C60.7141002,16.7050428 60.7674344,16.5826888 60.8220386,16.4628065 C60.8499802,16.4022475 60.8779447,16.3416884 60.9083947,16.2811293 C60.9655721,16.161247 61.025263,16.0413648 61.090038,15.9239543 C61.1522716,15.8040721 61.2195855,15.6866616 61.2881758,15.570487 C61.3567661,15.4543125 61.427866,15.3381379 61.5028118,15.2231993 C61.5371038,15.1663479 61.5751831,15.1082606 61.614563,15.0526451 C61.6907801,14.9389424 61.770782,14.8252396 61.8520819,14.7140086 C62.0159569,14.4890502 62.1924844,14.2678242 62.3791813,14.0527776 Z M59.9419186,19.8256646 C59.9381084,19.8726287 59.9342905,19.9195929 59.9317478,19.9665571 C59.934288,19.9195929 59.938102,19.8726287 59.9431899,19.8256646 C59.9429783,19.8169949 59.9434028,19.8083216 59.94446,19.7997107 C59.9431899,19.808362 59.9431899,19.8170133 59.9419186,19.8256646 Z M60.0994077,18.6849293 C60.0943274,18.7158267 60.0879656,18.7467242 60.0828802,18.7776217 C60.0879605,18.7467242 60.0943223,18.7158267 60.100679,18.6849293 L60.0994077,18.6849293 Z" id="Shape" fill="#303030"></path>
            <path d="M64.8707176,28.4880335 C60.7422784,24.9576163 59.9763161,18.8084868 63.1095238,14.3492063 C62.9110801,14.5517255 62.71924,14.7638218 62.5340036,14.9854954 C60.1427546,17.8572611 59.4450276,21.803635 60.7036497,25.3380561 C61.9622718,28.8724772 64.9860283,31.4579829 68.6358993,32.1206381 C72.2857704,32.7832934 76.0072538,31.4224252 78.3985026,28.5506593 C78.5833195,28.3287042 78.7573636,28.1013916 78.9206349,27.8687215 C75.1099476,31.7487119 68.9994817,32.0180576 64.8707176,28.4880335 L64.8707176,28.4880335 Z" id="Path" fill="#000000" opacity="0.3"></path>
        </g>
        <g id="Group-40-Copy" transform="translate(154.000000, 23.000000)" stroke="#606060" stroke-linecap="round" stroke-linejoin="round" stroke-width="2">
            <line x1="0" y1="9.09494702e-13" x2="12" y2="11.5384615" id="Line-7"></line>
            <line x1="1.33226763e-15" y1="8.00641604e-17" x2="12" y2="11.5384615" id="Line-7-Copy" transform="translate(6.000000, 5.769231) scale(-1, 1) translate(-6.000000, -5.769231) "></line>
        </g>
        <circle id="Oval-2" stroke="#009681" fill="#E0F2F0" opacity="0.699999988" cx="162" cy="85" r="7"></circle>
        <path d="M161.961914,82.3183594 C162.244466,82.3183594 162.464355,82.2397461 162.621582,82.0825195 C162.778809,81.925293 162.857422,81.7099609 162.857422,81.4365234 C162.857422,81.1494141 162.778809,80.9283854 162.621582,80.7734375 C162.464355,80.6184896 162.244466,80.5410156 161.961914,80.5410156 C161.670247,80.5410156 161.445801,80.6184896 161.288574,80.7734375 C161.131348,80.9283854 161.052734,81.1494141 161.052734,81.4365234 C161.052734,81.7099609 161.131348,81.925293 161.288574,82.0825195 C161.445801,82.2397461 161.670247,82.3183594 161.961914,82.3183594 Z M162.754883,89.4394531 L162.754883,83.4394531 L161.148438,83.4394531 L161.148438,89.4394531 L162.754883,89.4394531 Z" id="i" fill="#009681" fill-rule="nonzero"></path>
        <path d="M161.358749,136.5 L166.5,141.862411 L161.094921,147.5 L160.303959,146.675014 L164.367,142.437 L154.5,142.437515 L154.5,141.270808 L164.35,141.27 L160.567787,137.324986 L161.358749,136.5 Z" id="Combined-Shape" fill="#D8232A" transform="translate(160.500000, 142.000000) scale(1, -1) rotate(-90.000000) translate(-160.500000, -142.000000) "></path>
        <path d="M150,201.887943 C150,203.828047 150,212.601973 150,228.20972 C150,230.674238 151.212565,231.252689 153.637695,229.945072 C156.062826,228.637455 162.187988,224.446862 172.013184,217.373294 C173.757324,215.89543 173.757324,214.505293 172.013184,213.202884 C170.269043,211.900475 164.14388,207.684004 153.637695,200.55347 C151.212565,199.503014 150,199.947839 150,201.887943 Z" id="Path-6" fill="#FFFFFF"></path>
        <g id="Group-5" transform="translate(150.000000, 253.000000)">
            <path d="M78.4783341,89.0993996 C78.4783341,89.0993996 95.6270819,90.0228195 91.632772,95.6454545 C87.6384621,101.26809 77.1428571,92.347178 77.1428571,92.347178 L78.4783341,89.0993996 Z" id="Path" fill="#FFB8B8" fill-rule="nonzero"></path>
            <path d="M49.0099412,38.6657772 L52.4251756,39.5235849 C52.4251756,39.5235849 54.4173962,45.5282653 55.8404117,50.9610703 C57.2634272,56.3938754 60.1094564,72.6923044 60.1094564,72.6923044 L82.173913,88.2281496 L79.5422774,94.1427618 L50.1484189,82.503815 L43.6024845,56.6798182 L49.0099412,38.6657772 Z" id="Path" fill="#80CBC0" fill-rule="nonzero"></path>
            <polygon id="Path" fill="#000000" fill-rule="nonzero" opacity="0.2" points="52.173913 50.4336224 50.8021118 76.3506204 53.6645963 84.0560374 45.2795031 78.5083389"></polygon>
            <path d="M56.8026671,96.0723956 C56.8026671,96.0723956 60.3927392,105.793659 60.9450571,112.459668 C61.4973749,119.125677 62.0496894,124.402935 62.0496894,124.402935 L45.20397,124.402935 L41.8900595,119.403428 L41.8900595,124.402935 L22.282749,124.402935 C22.282749,124.402935 16.7595636,106.349161 18.9688401,104.127157 C21.1781167,101.905154 42.1662226,92.4616411 42.1662226,92.4616411 L56.8026671,96.0723956 Z" id="Path" fill="#303030" fill-rule="nonzero"></path>
            <ellipse id="Oval" fill="#FFB8B8" fill-rule="nonzero" cx="34.378882" cy="17.6517678" rx="10.9006211" ry="10.9272849"></ellipse>
            <path d="M26.0379172,21.8545697 L25.1552795,34.3125584 L36.3354055,48.7525017 L41.9254658,35.1619631 C41.9254658,35.1619631 36.9238289,32.0474655 39.8659778,25.5353354 L26.0379172,21.8545697 Z" id="Path" fill="#FFB8B8" fill-rule="nonzero"></path>
            <path d="M57.0186335,99.6333353 C57.0186335,102.174389 50.0309583,106.124862 50.0309583,106.124862 L50.0309583,107.535987 L47.2358882,108.947112 L41.0870736,96.5298976 L39.4110504,110.075326 C39.4110504,110.075326 27.1117232,112.052273 23.1993043,110.075326 C19.2851873,108.100094 17.3289778,108.947112 11.7388377,106.97188 C6.14869747,104.996648 13.9752334,78.4664682 13.9752334,78.4664682 L8.38509317,37.543842 L20.5978174,31.3781 L21.2413967,31.0523238 L22.9208161,30.7402646 L25.4951334,30.2601734 L34.0993984,36.1327169 L34.7922226,39.801985 L35.2184453,42.0601279 L37.4531429,39.5190741 L39.1410528,33.91401 L51.1500052,40.6490029 L47.7962607,67.741575 C47.7962607,67.741575 57.0186335,97.0939961 57.0186335,99.6333353 Z" id="Path" fill="#80CBC0" fill-rule="nonzero"></path>
            <ellipse id="Oval" fill="#2F2E41" fill-rule="nonzero" cx="42.7639752" cy="96.664443" rx="1" ry="1"></ellipse>
            <path d="M26.3228086,7.02594041 L24.3136739,6.23419024 C24.3136739,6.23419024 28.5145801,1.68165796 34.3593683,2.07754074 L32.715495,0.296104136 C32.715495,0.296104136 36.7337609,-1.28737055 40.3867273,2.86927723 C42.3070232,5.05432777 44.5288229,7.62275442 45.9138812,10.5160467 L48.0655235,10.5160467 L47.1675094,12.46241 L50.310559,14.4087732 L47.0845195,14.0591611 C47.2767533,15.1250115 47.3062599,16.2131391 47.1720637,17.2875662 C47.0336701,18.3623207 46.4764888,19.34211 45.6181117,20.0201515 L45.6181117,20.0201515 C45.6181117,20.0201515 43.1264125,14.9433652 43.1264125,14.1516167 L43.1264125,16.130981 C43.1264125,16.130981 41.1172795,14.3495667 41.1172795,13.1619525 L40.0213999,14.5475063 L32.715495,14.5475063 L33.8113746,12.766092 L29.6104598,13.3598888 L31.2543418,11.1825796 L24.7501683,20.173449 C24.7501683,20.173449 21.0260193,9.99496722 26.3228086,7.02594041 Z" id="Path" fill="#303030" fill-rule="nonzero"></path>
            <ellipse id="Oval" fill="#606060" fill-rule="nonzero" cx="88.8819876" cy="65.5637091" rx="16.7701863" ry="16.8112075"></ellipse>
            <ellipse id="Oval" fill="#303030" fill-rule="nonzero" cx="88.8819876" cy="65.5637091" rx="15.0931677" ry="15.1300867"></ellipse>
            <text id="" font-family="Helvetica" font-size="26" font-weight="normal" line-spacing="21" fill="#FFFFFF">
                <tspan x="82.743567" y="82.0853903"></tspan>
            </text>
            <path d="M16.3539606,107.591728 C16.3539606,107.591728 29.8678953,118.714152 23.4047087,120.818394 C16.9415222,122.922636 13.4161491,109.395365 13.4161491,109.395365 L16.3539606,107.591728 Z" id="Path" fill="#FFB8B8" fill-rule="nonzero"></path>
            <path d="M11.4743381,37.542913 L8.60575402,36.9846564 C8.60575402,36.9846564 4.30287701,39.2176928 4.01601808,43.6837638 C3.72915915,48.1498348 0,79.4123388 0,79.4123388 L12.0480542,110.953969 L21.8012422,107.325287 L12.3349132,77.737559 L19.506369,52.0576476 L11.4743381,37.542913 Z" id="Path" fill="#80CBC0" fill-rule="nonzero"></path>
            <ellipse id="Oval" fill="#2F2E41" fill-rule="nonzero" cx="36.0559006" cy="44.5496998" rx="1" ry="1"></ellipse>
            <ellipse id="Oval" fill="#2F2E41" fill-rule="nonzero" cx="36.0559006" cy="51.2741828" rx="1" ry="1"></ellipse>
            <polygon id="Path" fill="#000000" fill-rule="nonzero" opacity="0.2" points="15.0931677 86.588982 21.8012422 107.591728 16.4341117 85.7371581"></polygon>
        </g>
        <g id="noun_Award_551936" transform="translate(165.000000, 422.000000)" fill-rule="nonzero">
            <g id="Group">
                <path d="M11.3814927,1.02494344e-05 C11.2508336,-0.000844123615 11.1255389,0.0517483151 11.0351976,0.145542534 L0.131519241,11.450297 C0.000290650319,11.5866049 -0.0364507912,11.7875484 0.0381385375,11.9610077 C0.112727866,12.134467 0.284264989,12.2469941 0.47411101,12.2470024 L1.89632991,12.2470024 L1.89632991,24.964851 C1.89635608,25.2249546 2.10859049,25.4358825 2.37040288,25.4358825 L9.00742444,25.4358825 L13.7481541,25.4358825 L17.1925901,25.4358825 C17.1922942,25.4264618 17.1911176,25.4176592 17.1907383,25.4101227 C17.0255779,25.4101227 16.8691405,25.4103648 16.6629624,25.3843629 C16.5122328,25.3645806 16.3479921,25.3391712 16.1222224,25.2537261 C15.8964528,25.1679984 15.5465234,25.0101322 15.2796317,24.5618987 C15.2655422,24.5383472 15.260628,24.518269 15.2481504,24.4956595 L14.2222271,24.4956595 L14.2222271,16.4862853 C14.2222009,16.2261526 14.0099666,16.0152798 13.7481541,16.0152538 L9.00742444,16.0152538 C8.745612,16.0152798 8.53337761,16.2261526 8.53335147,16.4862853 L8.53335147,24.4956595 L2.84447585,24.4956595 L2.84447585,12.2488422 L19.9111027,12.2488422 L19.8518626,15.1634808 C19.8885938,15.1832641 19.9353089,15.2025764 19.9722326,15.2223597 C20.0573192,15.081804 20.1348263,14.9446867 20.2611212,14.7807678 C20.353556,14.6609374 20.4569684,14.5329789 20.6444538,14.3814951 C20.6823692,14.3504071 20.7512416,14.31558 20.8000085,14.2821367 L20.8592486,12.2470024 L22.2814675,12.2470024 C22.4713135,12.246994 22.6428506,12.1344669 22.7174399,11.9610077 C22.7920292,11.7875484 22.7552878,11.5866049 22.6240592,11.450297 L20.8592486,9.6213705 C20.859292,9.61769061 20.859292,9.61401035 20.8592486,9.61033046 L20.8592486,4.23946804 C20.8592225,3.97933534 20.6469881,3.76846262 20.3851757,3.76843661 L18.4888838,3.76843661 C18.2270714,3.76846262 18.014837,3.97933534 18.0148108,4.23946804 L18.0148108,6.67190375 L11.720381,0.145542534 C11.6318181,0.0535951925 11.5095797,0.00116416774 11.3814927,1.02494344e-05 Z M11.3777893,1.15384419 L21.1685073,11.3049395 L2.37040288,11.3049395 L1.58707135,11.3049395 L11.3777893,1.15384419 Z M18.9629568,4.71049947 L19.9111027,4.71049947 L19.9111027,8.63698829 L18.9518454,7.64340589 C18.9596274,7.60836978 18.9633553,7.57256502 18.9629568,7.53668807 L18.9629568,4.71049947 Z M9.48149741,16.9573167 L13.2740812,16.9573167 L13.2740812,24.4938196 L9.48149741,24.4938196 L9.48149741,16.9573167 Z" id="Shape" fill="#303030"></path>
                <path d="M21.9355268,15.0773468 C25.2398358,15.0423079 27.9645567,17.691216 27.9996568,20.9744355 C28.0347854,24.257506 25.3687322,26.9653659 22.0644893,26.9996593 C18.7602493,27.0345491 16.0355494,24.385641 16.0003593,21.1025705 C15.9651332,17.819351 18.6312209,15.1116402 21.9355268,15.0773468 Z M21.9430549,15.9289551 C19.0930685,15.959121 16.82708,18.2600801 16.8574579,21.0917607 C16.8878153,23.9234413 19.203683,26.1787253 22.0536111,26.1480481 C24.9035392,26.1178821 27.1728674,23.8169231 27.1425581,20.9852425 C27.112283,18.1535619 24.7930413,15.8982778 21.9430549,15.9289551 Z" id="Combined-Shape" fill-opacity="0.8" fill="#303030"></path>
                <polygon id="Path" stroke="#FFFFFF" stroke-width="0.5" fill="#D8232A" points="24.0551253 18.4817136 21.1897669 21.4624623 20.617327 20.8663136 20.0448888 20.2701632 18.9000108 21.4624623 19.472449 22.0586127 20.0448888 22.6547631 21.1897669 23.8470622 25.2000033 19.6740144"></polygon>
            </g>
        </g>
    </g>
</svg>