<svg xmlns="http://www.w3.org/2000/svg" width="23" height="24" viewBox="0 0 23 24">
    <g fill="none" fill-rule="evenodd">
        <g fill="#FFF" fill-rule="nonzero" stroke="#FFF" stroke-width=".5">
            <g>
                <g>
                    <path d="M15.801 12.955l-.008.068c-1.985-.99-2.192-1.121-2.449-.737-.177.267-.695.87-.852 1.05-.158.175-.315.189-.583.067-.27-.135-1.14-.42-2.169-1.34-.801-.718-1.339-1.598-1.498-1.869-.264-.456.289-.521.793-1.474.09-.19.044-.339-.023-.473-.068-.136-.606-1.463-.832-1.991-.217-.528-.44-.46-.607-.46-.52-.046-.9-.039-1.234.31-1.457 1.6-1.09 3.253.157 5.009 2.45 3.206 3.754 3.796 6.14 4.616.645.205 1.233.176 1.698.109.518-.082 1.594-.65 1.82-1.287.23-.636.23-1.164.162-1.286-.067-.122-.244-.19-.515-.312h0z" transform="translate(-42 -1131) translate(23 1121) translate(20 11)"/>
                    <path d="M18.52 3.155C11.58-3.554.097 1.312.092 10.777c0 1.891.496 3.736 1.44 5.365L0 21.704l5.718-1.491c7.135 3.854 15.94-1.264 15.944-9.431 0-2.867-1.12-5.564-3.155-7.592l.014-.035zm1.338 7.597c-.005 6.89-7.568 11.192-13.55 7.676l-.324-.194-3.385.88.907-3.29-.215-.338c-3.722-5.925.554-13.67 7.605-13.67 2.395 0 4.643.935 6.337 2.627 1.692 1.678 2.625 3.926 2.625 6.31z" transform="translate(-42 -1131) translate(23 1121) translate(20 11)"/>
                </g>
            </g>
        </g>
    </g>
</svg>
